<svg xmlns="http://www.w3.org/2000/svg" xmlns:xlink="http://www.w3.org/1999/xlink" width="500" zoomAndPan="magnify" viewBox="0 0 375 374.999991" height="500" preserveAspectRatio="xMidYMid meet" version="1.0"><defs><g/></defs><rect x="-37.5" width="450" fill="#ffffff" y="-37.499999" height="449.999989" fill-opacity="1"/><rect x="-37.5" width="450" fill="#ffffff" y="-37.499999" height="449.999989" fill-opacity="1"/><g fill="#ff0000" fill-opacity="1"><g transform="translate(59.873231, 278.061729)"><g><path d="M -13.3125 -50.1875 C -10.539062 -52.46875 -7.613281 -53.382812 -4.53125 -52.9375 C -1.445312 -52.488281 1.3125 -50.796875 3.75 -47.859375 C 4.4375 -47.023438 4.929688 -46.351562 5.234375 -45.84375 C 6.796875 -43.40625 7.765625 -40.914062 8.140625 -38.375 C 8.515625 -35.832031 8.273438 -33.441406 7.421875 -31.203125 C 6.578125 -28.960938 5.1875 -27.039062 3.25 -25.4375 L 0.390625 -23.078125 C 0.222656 -22.929688 0.210938 -22.769531 0.359375 -22.59375 L 9.109375 -8.84375 C 9.273438 -8.570312 9.335938 -8.300781 9.296875 -8.03125 C 9.253906 -7.769531 9.128906 -7.550781 8.921875 -7.375 L 0.9375 -0.78125 C 0.726562 -0.601562 0.503906 -0.53125 0.265625 -0.5625 C 0.0351562 -0.601562 -0.160156 -0.765625 -0.328125 -1.046875 L -24.84375 -39.3125 C -25.007812 -39.59375 -25.070312 -39.863281 -25.03125 -40.125 C -25 -40.382812 -24.878906 -40.601562 -24.671875 -40.78125 Z M -4.203125 -31.921875 C -3.441406 -32.554688 -3.03125 -33.378906 -2.96875 -34.390625 C -2.914062 -35.398438 -3.289062 -36.53125 -4.09375 -37.78125 C -4.226562 -38.03125 -4.453125 -38.34375 -4.765625 -38.71875 C -5.484375 -39.582031 -6.21875 -40.082031 -6.96875 -40.21875 C -7.71875 -40.351562 -8.421875 -40.148438 -9.078125 -39.609375 L -9.796875 -39 C -9.972656 -38.851562 -9.992188 -38.691406 -9.859375 -38.515625 L -5.3125 -31.4375 C -5.238281 -31.21875 -5.097656 -31.191406 -4.890625 -31.359375 Z M -4.203125 -31.921875 "/></g></g></g><g fill="#ff0000" fill-opacity="1"><g transform="translate(87.783527, 254.961811)"><g><path d="M 14.0625 -11.640625 C 13.644531 -11.296875 13.21875 -11.316406 12.78125 -11.703125 L 0.453125 -23.546875 C 0.335938 -23.679688 0.226562 -23.703125 0.125 -23.609375 C -0.0078125 -23.503906 -0.0078125 -23.367188 0.125 -23.203125 L 9.21875 -8.9375 C 9.382812 -8.664062 9.445312 -8.394531 9.40625 -8.125 C 9.363281 -7.863281 9.238281 -7.644531 9.03125 -7.46875 L 1.03125 -0.859375 C 0.820312 -0.679688 0.597656 -0.609375 0.359375 -0.640625 C 0.128906 -0.679688 -0.0664062 -0.84375 -0.234375 -1.125 L -24.734375 -39.390625 C -24.910156 -39.671875 -24.976562 -39.941406 -24.9375 -40.203125 C -24.894531 -40.472656 -24.769531 -40.691406 -24.5625 -40.859375 L -13.203125 -50.265625 C -10.429688 -52.554688 -7.507812 -53.484375 -4.4375 -53.046875 C -1.375 -52.609375 1.359375 -50.9375 3.765625 -48.03125 C 4.441406 -47.207031 4.9375 -46.546875 5.25 -46.046875 C 6.582031 -43.941406 7.453125 -41.789062 7.859375 -39.59375 C 8.273438 -37.40625 8.21875 -35.296875 7.6875 -33.265625 C 7.59375 -33.023438 7.640625 -32.863281 7.828125 -32.78125 L 22.25 -19.890625 L 22.421875 -19.6875 C 22.597656 -19.476562 22.664062 -19.253906 22.625 -19.015625 C 22.582031 -18.785156 22.457031 -18.585938 22.25 -18.421875 Z M -9.703125 -39.09375 C -9.867188 -38.945312 -9.882812 -38.785156 -9.75 -38.609375 L -5.515625 -31.890625 C -5.367188 -31.722656 -5.207031 -31.710938 -5.03125 -31.859375 L -4.34375 -32.40625 C -3.519531 -33.09375 -3.125 -34.035156 -3.15625 -35.234375 C -3.195312 -36.441406 -3.742188 -37.679688 -4.796875 -38.953125 C -5.453125 -39.742188 -6.144531 -40.203125 -6.875 -40.328125 C -7.613281 -40.453125 -8.3125 -40.238281 -8.96875 -39.6875 Z M -9.703125 -39.09375 "/></g></g></g><g fill="#ff0000" fill-opacity="1"><g transform="translate(116.108846, 231.518401)"><g><path d="M 16.125 -13.34375 C 15.644531 -12.945312 15.222656 -13.003906 14.859375 -13.515625 L 11.5 -17.390625 C 11.46875 -17.484375 11.394531 -17.523438 11.28125 -17.515625 C 11.175781 -17.503906 11.085938 -17.472656 11.015625 -17.421875 L 6.5 -13.671875 C 6.332031 -13.535156 6.285156 -13.351562 6.359375 -13.125 L 8.640625 -8.359375 C 8.929688 -7.796875 8.835938 -7.3125 8.359375 -6.90625 L 0.46875 -0.390625 C -0.0507812 0.046875 -0.472656 -0.0664062 -0.796875 -0.734375 L -18.1875 -45 C -18.425781 -45.5625 -18.304688 -46.039062 -17.828125 -46.4375 L -8.640625 -54.046875 C -8.160156 -54.441406 -7.710938 -54.429688 -7.296875 -54.015625 L 24.375 -21.5625 L 24.46875 -21.453125 C 24.863281 -20.972656 24.800781 -20.519531 24.28125 -20.09375 Z M 1.859375 -22.875 C 1.929688 -22.632812 2.054688 -22.585938 2.234375 -22.734375 L 4.671875 -24.75 C 4.773438 -24.84375 4.789062 -25.003906 4.71875 -25.234375 L -3.421875 -34.65625 C -3.535156 -34.800781 -3.628906 -34.828125 -3.703125 -34.734375 C -3.773438 -34.640625 -3.769531 -34.539062 -3.6875 -34.4375 Z M 1.859375 -22.875 "/></g></g></g><g fill="#ff0000" fill-opacity="1"><g transform="translate(146.509259, 206.357542)"><g><path d="M 11.125 -8.515625 C 8.15625 -6.054688 5.164062 -4.878906 2.15625 -4.984375 C -0.84375 -5.097656 -3.398438 -6.4375 -5.515625 -9 C -5.710938 -9.238281 -6.039062 -9.695312 -6.5 -10.375 L -7.609375 -12.140625 C -7.773438 -12.421875 -7.835938 -12.691406 -7.796875 -12.953125 C -7.753906 -13.222656 -7.628906 -13.441406 -7.421875 -13.609375 L 0.46875 -20.140625 C 0.675781 -20.304688 0.894531 -20.367188 1.125 -20.328125 C 1.363281 -20.296875 1.5625 -20.140625 1.71875 -19.859375 L 2.5625 -18.65625 C 2.945312 -18.039062 3.390625 -17.644531 3.890625 -17.46875 C 4.390625 -17.300781 4.847656 -17.390625 5.265625 -17.734375 C 5.710938 -18.097656 5.929688 -18.597656 5.921875 -19.234375 C 5.921875 -19.878906 5.691406 -20.476562 5.234375 -21.03125 C 4.804688 -21.550781 4.109375 -21.878906 3.140625 -22.015625 C 2.179688 -22.148438 0.523438 -22.207031 -1.828125 -22.1875 C -4.148438 -22.164062 -6.128906 -22.226562 -7.765625 -22.375 C -9.398438 -22.519531 -11.078125 -22.960938 -12.796875 -23.703125 C -14.523438 -24.453125 -16.078125 -25.660156 -17.453125 -27.328125 C -17.710938 -27.640625 -18.125 -28.207031 -18.6875 -29.03125 C -20.851562 -32.414062 -21.632812 -35.957031 -21.03125 -39.65625 C -20.425781 -43.363281 -18.492188 -46.566406 -15.234375 -49.265625 C -12.265625 -51.722656 -9.265625 -52.863281 -6.234375 -52.6875 C -3.210938 -52.519531 -0.585938 -51.085938 1.640625 -48.390625 C 1.898438 -48.078125 2.28125 -47.546875 2.78125 -46.796875 L 3.578125 -45.53125 C 3.742188 -45.257812 3.804688 -44.988281 3.765625 -44.71875 C 3.722656 -44.445312 3.597656 -44.226562 3.390625 -44.0625 L -4.4375 -37.578125 C -4.644531 -37.410156 -4.863281 -37.347656 -5.09375 -37.390625 C -5.332031 -37.429688 -5.535156 -37.582031 -5.703125 -37.84375 L -6.671875 -39.328125 C -7.066406 -39.867188 -7.507812 -40.210938 -8 -40.359375 C -8.5 -40.503906 -8.957031 -40.40625 -9.375 -40.0625 C -9.851562 -39.664062 -10.078125 -39.125 -10.046875 -38.4375 C -10.015625 -37.757812 -9.710938 -37.078125 -9.140625 -36.390625 C -8.660156 -35.804688 -7.914062 -35.398438 -6.90625 -35.171875 C -5.90625 -34.953125 -4.296875 -34.835938 -2.078125 -34.828125 C 0.929688 -34.796875 3.273438 -34.707031 4.953125 -34.5625 C 6.640625 -34.414062 8.203125 -34.019531 9.640625 -33.375 C 11.085938 -32.738281 12.382812 -31.726562 13.53125 -30.34375 C 13.757812 -30.0625 14.125 -29.546875 14.625 -28.796875 C 16.8125 -25.304688 17.578125 -21.71875 16.921875 -18.03125 C 16.273438 -14.351562 14.34375 -11.179688 11.125 -8.515625 Z M 11.125 -8.515625 "/></g></g></g><g fill="#ff0000" fill-opacity="1"><g transform="translate(173.485761, 184.030478)"><g><path d="M -12.34375 -49.65625 C -12.519531 -49.9375 -12.59375 -50.203125 -12.5625 -50.453125 C -12.539062 -50.703125 -12.40625 -50.925781 -12.15625 -51.125 L -4.234375 -57.6875 C -3.984375 -57.894531 -3.738281 -57.976562 -3.5 -57.9375 C -3.269531 -57.90625 -3.070312 -57.75 -2.90625 -57.46875 L 21.609375 -19.203125 C 21.773438 -18.921875 21.835938 -18.644531 21.796875 -18.375 C 21.753906 -18.113281 21.613281 -17.882812 21.375 -17.6875 L 13.4375 -11.125 C 13.195312 -10.914062 12.957031 -10.828125 12.71875 -10.859375 C 12.488281 -10.898438 12.289062 -11.0625 12.125 -11.34375 L 3 -25.640625 C 2.851562 -25.816406 2.710938 -25.847656 2.578125 -25.734375 L 0.125 -23.71875 C -0.0390625 -23.582031 -0.0507812 -23.425781 0.09375 -23.25 L 9.21875 -8.9375 C 9.382812 -8.664062 9.445312 -8.394531 9.40625 -8.125 C 9.363281 -7.863281 9.238281 -7.644531 9.03125 -7.46875 L 1.03125 -0.859375 C 0.820312 -0.679688 0.597656 -0.609375 0.359375 -0.640625 C 0.128906 -0.679688 -0.0664062 -0.84375 -0.234375 -1.125 L -24.734375 -39.390625 C -24.910156 -39.671875 -24.976562 -39.941406 -24.9375 -40.203125 C -24.894531 -40.472656 -24.769531 -40.691406 -24.5625 -40.859375 L -16.5625 -47.484375 C -16.363281 -47.648438 -16.144531 -47.710938 -15.90625 -47.671875 C -15.664062 -47.640625 -15.460938 -47.484375 -15.296875 -47.203125 L -6.171875 -33.015625 C -6.097656 -32.773438 -5.957031 -32.742188 -5.75 -32.921875 L -3.3125 -34.9375 C -3.25 -34.988281 -3.210938 -35.0625 -3.203125 -35.15625 C -3.191406 -35.257812 -3.210938 -35.347656 -3.265625 -35.421875 Z M -12.34375 -49.65625 "/></g></g></g><g fill="#ff0000" fill-opacity="1"><g transform="translate(201.603572, 160.75881)"><g><path d="M 16.125 -13.34375 C 15.644531 -12.945312 15.222656 -13.003906 14.859375 -13.515625 L 11.5 -17.390625 C 11.46875 -17.484375 11.394531 -17.523438 11.28125 -17.515625 C 11.175781 -17.503906 11.085938 -17.472656 11.015625 -17.421875 L 6.5 -13.671875 C 6.332031 -13.535156 6.285156 -13.351562 6.359375 -13.125 L 8.640625 -8.359375 C 8.929688 -7.796875 8.835938 -7.3125 8.359375 -6.90625 L 0.46875 -0.390625 C -0.0507812 0.046875 -0.472656 -0.0664062 -0.796875 -0.734375 L -18.1875 -45 C -18.425781 -45.5625 -18.304688 -46.039062 -17.828125 -46.4375 L -8.640625 -54.046875 C -8.160156 -54.441406 -7.710938 -54.429688 -7.296875 -54.015625 L 24.375 -21.5625 L 24.46875 -21.453125 C 24.863281 -20.972656 24.800781 -20.519531 24.28125 -20.09375 Z M 1.859375 -22.875 C 1.929688 -22.632812 2.054688 -22.585938 2.234375 -22.734375 L 4.671875 -24.75 C 4.773438 -24.84375 4.789062 -25.003906 4.71875 -25.234375 L -3.421875 -34.65625 C -3.535156 -34.800781 -3.628906 -34.828125 -3.703125 -34.734375 C -3.773438 -34.640625 -3.769531 -34.539062 -3.6875 -34.4375 Z M 1.859375 -22.875 "/></g></g></g><g fill="#ff0000" fill-opacity="1"><g transform="translate(232.003994, 135.597944)"><g><path d="M -10.15625 -51.46875 C -10.332031 -51.738281 -10.398438 -52.003906 -10.359375 -52.265625 C -10.316406 -52.535156 -10.175781 -52.769531 -9.9375 -52.96875 L -2.09375 -59.453125 C -1.851562 -59.648438 -1.613281 -59.726562 -1.375 -59.6875 C -1.144531 -59.65625 -0.941406 -59.503906 -0.765625 -59.234375 L 23.6875 -20.921875 C 23.851562 -20.640625 23.925781 -20.375 23.90625 -20.125 C 23.882812 -19.875 23.75 -19.648438 23.5 -19.453125 L 14.53125 -12.03125 C 14.113281 -11.675781 13.679688 -11.695312 13.234375 -12.09375 L -1.90625 -26.390625 C -2 -26.492188 -2.082031 -26.515625 -2.15625 -26.453125 C -2.226562 -26.390625 -2.21875 -26.304688 -2.125 -26.203125 L 9.109375 -8.84375 C 9.273438 -8.570312 9.335938 -8.300781 9.296875 -8.03125 C 9.253906 -7.769531 9.128906 -7.550781 8.921875 -7.375 L 1.03125 -0.859375 C 0.820312 -0.679688 0.597656 -0.609375 0.359375 -0.640625 C 0.128906 -0.679688 -0.0664062 -0.84375 -0.234375 -1.125 L -24.734375 -39.390625 C -24.910156 -39.671875 -24.976562 -39.941406 -24.9375 -40.203125 C -24.894531 -40.472656 -24.769531 -40.691406 -24.5625 -40.859375 L -15.6875 -48.203125 C -15.269531 -48.546875 -14.84375 -48.523438 -14.40625 -48.140625 L 0.875 -33.78125 C 0.96875 -33.675781 1.035156 -33.671875 1.078125 -33.765625 C 1.117188 -33.859375 1.128906 -33.953125 1.109375 -34.046875 Z M -10.15625 -51.46875 "/></g></g></g><g fill="#ff0000" fill-opacity="1"><g transform="translate(262.248782, 110.565887)"><g><path d="M -3.140625 -58.59375 C -2.929688 -58.769531 -2.707031 -58.835938 -2.46875 -58.796875 C -2.238281 -58.765625 -2.035156 -58.609375 -1.859375 -58.328125 L 2.921875 -50.859375 C 3.085938 -50.585938 3.160156 -50.328125 3.140625 -50.078125 C 3.117188 -49.828125 2.988281 -49.597656 2.75 -49.390625 L -3.265625 -44.421875 C -3.441406 -44.273438 -3.460938 -44.113281 -3.328125 -43.9375 L 15.640625 -14.265625 C 15.804688 -13.984375 15.878906 -13.71875 15.859375 -13.46875 C 15.835938 -13.21875 15.703125 -12.992188 15.453125 -12.796875 L 7.515625 -6.21875 C 7.273438 -6.019531 7.035156 -5.9375 6.796875 -5.96875 C 6.566406 -6.007812 6.367188 -6.171875 6.203125 -6.453125 L -12.765625 -36.125 C -12.898438 -36.300781 -13.054688 -36.316406 -13.234375 -36.171875 L -19.046875 -31.359375 C -19.285156 -31.160156 -19.519531 -31.082031 -19.75 -31.125 C -19.988281 -31.164062 -20.195312 -31.316406 -20.375 -31.578125 L -25.15625 -39.046875 C -25.320312 -39.328125 -25.382812 -39.597656 -25.34375 -39.859375 C -25.300781 -40.128906 -25.160156 -40.363281 -24.921875 -40.5625 Z M -3.140625 -58.59375 "/></g></g></g><g fill="#ff0000" fill-opacity="1"><g transform="translate(291.040998, 86.73605)"><g><path d="M -12.34375 -49.65625 C -12.519531 -49.9375 -12.59375 -50.203125 -12.5625 -50.453125 C -12.539062 -50.703125 -12.40625 -50.925781 -12.15625 -51.125 L -4.234375 -57.6875 C -3.984375 -57.894531 -3.738281 -57.976562 -3.5 -57.9375 C -3.269531 -57.90625 -3.070312 -57.75 -2.90625 -57.46875 L 21.609375 -19.203125 C 21.773438 -18.921875 21.835938 -18.644531 21.796875 -18.375 C 21.753906 -18.113281 21.613281 -17.882812 21.375 -17.6875 L 13.4375 -11.125 C 13.195312 -10.914062 12.957031 -10.828125 12.71875 -10.859375 C 12.488281 -10.898438 12.289062 -11.0625 12.125 -11.34375 L 3 -25.640625 C 2.851562 -25.816406 2.710938 -25.847656 2.578125 -25.734375 L 0.125 -23.71875 C -0.0390625 -23.582031 -0.0507812 -23.425781 0.09375 -23.25 L 9.21875 -8.9375 C 9.382812 -8.664062 9.445312 -8.394531 9.40625 -8.125 C 9.363281 -7.863281 9.238281 -7.644531 9.03125 -7.46875 L 1.03125 -0.859375 C 0.820312 -0.679688 0.597656 -0.609375 0.359375 -0.640625 C 0.128906 -0.679688 -0.0664062 -0.84375 -0.234375 -1.125 L -24.734375 -39.390625 C -24.910156 -39.671875 -24.976562 -39.941406 -24.9375 -40.203125 C -24.894531 -40.472656 -24.769531 -40.691406 -24.5625 -40.859375 L -16.5625 -47.484375 C -16.363281 -47.648438 -16.144531 -47.710938 -15.90625 -47.671875 C -15.664062 -47.640625 -15.460938 -47.484375 -15.296875 -47.203125 L -6.171875 -33.015625 C -6.097656 -32.773438 -5.957031 -32.742188 -5.75 -32.921875 L -3.3125 -34.9375 C -3.25 -34.988281 -3.210938 -35.0625 -3.203125 -35.15625 C -3.191406 -35.257812 -3.210938 -35.347656 -3.265625 -35.421875 Z M -12.34375 -49.65625 "/></g></g></g><g fill="#00ffff" fill-opacity="1"><g transform="translate(63.246773, 273.647275)"><g><path d="M -13.3125 -50.1875 C -10.539062 -52.46875 -7.613281 -53.382812 -4.53125 -52.9375 C -1.445312 -52.488281 1.3125 -50.796875 3.75 -47.859375 C 4.4375 -47.023438 4.929688 -46.351562 5.234375 -45.84375 C 6.796875 -43.40625 7.765625 -40.914062 8.140625 -38.375 C 8.515625 -35.832031 8.273438 -33.441406 7.421875 -31.203125 C 6.578125 -28.960938 5.1875 -27.039062 3.25 -25.4375 L 0.390625 -23.078125 C 0.222656 -22.929688 0.210938 -22.769531 0.359375 -22.59375 L 9.109375 -8.84375 C 9.273438 -8.570312 9.335938 -8.300781 9.296875 -8.03125 C 9.253906 -7.769531 9.128906 -7.550781 8.921875 -7.375 L 0.9375 -0.78125 C 0.726562 -0.601562 0.503906 -0.53125 0.265625 -0.5625 C 0.0351562 -0.601562 -0.160156 -0.765625 -0.328125 -1.046875 L -24.84375 -39.3125 C -25.007812 -39.59375 -25.070312 -39.863281 -25.03125 -40.125 C -25 -40.382812 -24.878906 -40.601562 -24.671875 -40.78125 Z M -4.203125 -31.921875 C -3.441406 -32.554688 -3.03125 -33.378906 -2.96875 -34.390625 C -2.914062 -35.398438 -3.289062 -36.53125 -4.09375 -37.78125 C -4.226562 -38.03125 -4.453125 -38.34375 -4.765625 -38.71875 C -5.484375 -39.582031 -6.21875 -40.082031 -6.96875 -40.21875 C -7.71875 -40.351562 -8.421875 -40.148438 -9.078125 -39.609375 L -9.796875 -39 C -9.972656 -38.851562 -9.992188 -38.691406 -9.859375 -38.515625 L -5.3125 -31.4375 C -5.238281 -31.21875 -5.097656 -31.191406 -4.890625 -31.359375 Z M -4.203125 -31.921875 "/></g></g></g><g fill="#00ffff" fill-opacity="1"><g transform="translate(91.15707, 250.547357)"><g><path d="M 14.0625 -11.640625 C 13.644531 -11.296875 13.21875 -11.316406 12.78125 -11.703125 L 0.453125 -23.546875 C 0.335938 -23.679688 0.226562 -23.703125 0.125 -23.609375 C -0.0078125 -23.503906 -0.0078125 -23.367188 0.125 -23.203125 L 9.21875 -8.9375 C 9.382812 -8.664062 9.445312 -8.394531 9.40625 -8.125 C 9.363281 -7.863281 9.238281 -7.644531 9.03125 -7.46875 L 1.03125 -0.859375 C 0.820312 -0.679688 0.597656 -0.609375 0.359375 -0.640625 C 0.128906 -0.679688 -0.0664062 -0.84375 -0.234375 -1.125 L -24.734375 -39.390625 C -24.910156 -39.671875 -24.976562 -39.941406 -24.9375 -40.203125 C -24.894531 -40.472656 -24.769531 -40.691406 -24.5625 -40.859375 L -13.203125 -50.265625 C -10.429688 -52.554688 -7.507812 -53.484375 -4.4375 -53.046875 C -1.375 -52.609375 1.359375 -50.9375 3.765625 -48.03125 C 4.441406 -47.207031 4.9375 -46.546875 5.25 -46.046875 C 6.582031 -43.941406 7.453125 -41.789062 7.859375 -39.59375 C 8.273438 -37.40625 8.21875 -35.296875 7.6875 -33.265625 C 7.59375 -33.023438 7.640625 -32.863281 7.828125 -32.78125 L 22.25 -19.890625 L 22.421875 -19.6875 C 22.597656 -19.476562 22.664062 -19.253906 22.625 -19.015625 C 22.582031 -18.785156 22.457031 -18.585938 22.25 -18.421875 Z M -9.703125 -39.09375 C -9.867188 -38.945312 -9.882812 -38.785156 -9.75 -38.609375 L -5.515625 -31.890625 C -5.367188 -31.722656 -5.207031 -31.710938 -5.03125 -31.859375 L -4.34375 -32.40625 C -3.519531 -33.09375 -3.125 -34.035156 -3.15625 -35.234375 C -3.195312 -36.441406 -3.742188 -37.679688 -4.796875 -38.953125 C -5.453125 -39.742188 -6.144531 -40.203125 -6.875 -40.328125 C -7.613281 -40.453125 -8.3125 -40.238281 -8.96875 -39.6875 Z M -9.703125 -39.09375 "/></g></g></g><g fill="#00ffff" fill-opacity="1"><g transform="translate(119.482388, 227.103947)"><g><path d="M 16.125 -13.34375 C 15.644531 -12.945312 15.222656 -13.003906 14.859375 -13.515625 L 11.5 -17.390625 C 11.46875 -17.484375 11.394531 -17.523438 11.28125 -17.515625 C 11.175781 -17.503906 11.085938 -17.472656 11.015625 -17.421875 L 6.5 -13.671875 C 6.332031 -13.535156 6.285156 -13.351562 6.359375 -13.125 L 8.640625 -8.359375 C 8.929688 -7.796875 8.835938 -7.3125 8.359375 -6.90625 L 0.46875 -0.390625 C -0.0507812 0.046875 -0.472656 -0.0664062 -0.796875 -0.734375 L -18.1875 -45 C -18.425781 -45.5625 -18.304688 -46.039062 -17.828125 -46.4375 L -8.640625 -54.046875 C -8.160156 -54.441406 -7.710938 -54.429688 -7.296875 -54.015625 L 24.375 -21.5625 L 24.46875 -21.453125 C 24.863281 -20.972656 24.800781 -20.519531 24.28125 -20.09375 Z M 1.859375 -22.875 C 1.929688 -22.632812 2.054688 -22.585938 2.234375 -22.734375 L 4.671875 -24.75 C 4.773438 -24.84375 4.789062 -25.003906 4.71875 -25.234375 L -3.421875 -34.65625 C -3.535156 -34.800781 -3.628906 -34.828125 -3.703125 -34.734375 C -3.773438 -34.640625 -3.769531 -34.539062 -3.6875 -34.4375 Z M 1.859375 -22.875 "/></g></g></g><g fill="#00ffff" fill-opacity="1"><g transform="translate(149.882801, 201.943088)"><g><path d="M 11.125 -8.515625 C 8.15625 -6.054688 5.164062 -4.878906 2.15625 -4.984375 C -0.84375 -5.097656 -3.398438 -6.4375 -5.515625 -9 C -5.710938 -9.238281 -6.039062 -9.695312 -6.5 -10.375 L -7.609375 -12.140625 C -7.773438 -12.421875 -7.835938 -12.691406 -7.796875 -12.953125 C -7.753906 -13.222656 -7.628906 -13.441406 -7.421875 -13.609375 L 0.46875 -20.140625 C 0.675781 -20.304688 0.894531 -20.367188 1.125 -20.328125 C 1.363281 -20.296875 1.5625 -20.140625 1.71875 -19.859375 L 2.5625 -18.65625 C 2.945312 -18.039062 3.390625 -17.644531 3.890625 -17.46875 C 4.390625 -17.300781 4.847656 -17.390625 5.265625 -17.734375 C 5.710938 -18.097656 5.929688 -18.597656 5.921875 -19.234375 C 5.921875 -19.878906 5.691406 -20.476562 5.234375 -21.03125 C 4.804688 -21.550781 4.109375 -21.878906 3.140625 -22.015625 C 2.179688 -22.148438 0.523438 -22.207031 -1.828125 -22.1875 C -4.148438 -22.164062 -6.128906 -22.226562 -7.765625 -22.375 C -9.398438 -22.519531 -11.078125 -22.960938 -12.796875 -23.703125 C -14.523438 -24.453125 -16.078125 -25.660156 -17.453125 -27.328125 C -17.710938 -27.640625 -18.125 -28.207031 -18.6875 -29.03125 C -20.851562 -32.414062 -21.632812 -35.957031 -21.03125 -39.65625 C -20.425781 -43.363281 -18.492188 -46.566406 -15.234375 -49.265625 C -12.265625 -51.722656 -9.265625 -52.863281 -6.234375 -52.6875 C -3.210938 -52.519531 -0.585938 -51.085938 1.640625 -48.390625 C 1.898438 -48.078125 2.28125 -47.546875 2.78125 -46.796875 L 3.578125 -45.53125 C 3.742188 -45.257812 3.804688 -44.988281 3.765625 -44.71875 C 3.722656 -44.445312 3.597656 -44.226562 3.390625 -44.0625 L -4.4375 -37.578125 C -4.644531 -37.410156 -4.863281 -37.347656 -5.09375 -37.390625 C -5.332031 -37.429688 -5.535156 -37.582031 -5.703125 -37.84375 L -6.671875 -39.328125 C -7.066406 -39.867188 -7.507812 -40.210938 -8 -40.359375 C -8.5 -40.503906 -8.957031 -40.40625 -9.375 -40.0625 C -9.851562 -39.664062 -10.078125 -39.125 -10.046875 -38.4375 C -10.015625 -37.757812 -9.710938 -37.078125 -9.140625 -36.390625 C -8.660156 -35.804688 -7.914062 -35.398438 -6.90625 -35.171875 C -5.90625 -34.953125 -4.296875 -34.835938 -2.078125 -34.828125 C 0.929688 -34.796875 3.273438 -34.707031 4.953125 -34.5625 C 6.640625 -34.414062 8.203125 -34.019531 9.640625 -33.375 C 11.085938 -32.738281 12.382812 -31.726562 13.53125 -30.34375 C 13.757812 -30.0625 14.125 -29.546875 14.625 -28.796875 C 16.8125 -25.304688 17.578125 -21.71875 16.921875 -18.03125 C 16.273438 -14.351562 14.34375 -11.179688 11.125 -8.515625 Z M 11.125 -8.515625 "/></g></g></g><g fill="#00ffff" fill-opacity="1"><g transform="translate(176.859303, 179.616023)"><g><path d="M -12.34375 -49.65625 C -12.519531 -49.9375 -12.59375 -50.203125 -12.5625 -50.453125 C -12.539062 -50.703125 -12.40625 -50.925781 -12.15625 -51.125 L -4.234375 -57.6875 C -3.984375 -57.894531 -3.738281 -57.976562 -3.5 -57.9375 C -3.269531 -57.90625 -3.070312 -57.75 -2.90625 -57.46875 L 21.609375 -19.203125 C 21.773438 -18.921875 21.835938 -18.644531 21.796875 -18.375 C 21.753906 -18.113281 21.613281 -17.882812 21.375 -17.6875 L 13.4375 -11.125 C 13.195312 -10.914062 12.957031 -10.828125 12.71875 -10.859375 C 12.488281 -10.898438 12.289062 -11.0625 12.125 -11.34375 L 3 -25.640625 C 2.851562 -25.816406 2.710938 -25.847656 2.578125 -25.734375 L 0.125 -23.71875 C -0.0390625 -23.582031 -0.0507812 -23.425781 0.09375 -23.25 L 9.21875 -8.9375 C 9.382812 -8.664062 9.445312 -8.394531 9.40625 -8.125 C 9.363281 -7.863281 9.238281 -7.644531 9.03125 -7.46875 L 1.03125 -0.859375 C 0.820312 -0.679688 0.597656 -0.609375 0.359375 -0.640625 C 0.128906 -0.679688 -0.0664062 -0.84375 -0.234375 -1.125 L -24.734375 -39.390625 C -24.910156 -39.671875 -24.976562 -39.941406 -24.9375 -40.203125 C -24.894531 -40.472656 -24.769531 -40.691406 -24.5625 -40.859375 L -16.5625 -47.484375 C -16.363281 -47.648438 -16.144531 -47.710938 -15.90625 -47.671875 C -15.664062 -47.640625 -15.460938 -47.484375 -15.296875 -47.203125 L -6.171875 -33.015625 C -6.097656 -32.773438 -5.957031 -32.742188 -5.75 -32.921875 L -3.3125 -34.9375 C -3.25 -34.988281 -3.210938 -35.0625 -3.203125 -35.15625 C -3.191406 -35.257812 -3.210938 -35.347656 -3.265625 -35.421875 Z M -12.34375 -49.65625 "/></g></g></g><g fill="#00ffff" fill-opacity="1"><g transform="translate(204.977115, 156.344356)"><g><path d="M 16.125 -13.34375 C 15.644531 -12.945312 15.222656 -13.003906 14.859375 -13.515625 L 11.5 -17.390625 C 11.46875 -17.484375 11.394531 -17.523438 11.28125 -17.515625 C 11.175781 -17.503906 11.085938 -17.472656 11.015625 -17.421875 L 6.5 -13.671875 C 6.332031 -13.535156 6.285156 -13.351562 6.359375 -13.125 L 8.640625 -8.359375 C 8.929688 -7.796875 8.835938 -7.3125 8.359375 -6.90625 L 0.46875 -0.390625 C -0.0507812 0.046875 -0.472656 -0.0664062 -0.796875 -0.734375 L -18.1875 -45 C -18.425781 -45.5625 -18.304688 -46.039062 -17.828125 -46.4375 L -8.640625 -54.046875 C -8.160156 -54.441406 -7.710938 -54.429688 -7.296875 -54.015625 L 24.375 -21.5625 L 24.46875 -21.453125 C 24.863281 -20.972656 24.800781 -20.519531 24.28125 -20.09375 Z M 1.859375 -22.875 C 1.929688 -22.632812 2.054688 -22.585938 2.234375 -22.734375 L 4.671875 -24.75 C 4.773438 -24.84375 4.789062 -25.003906 4.71875 -25.234375 L -3.421875 -34.65625 C -3.535156 -34.800781 -3.628906 -34.828125 -3.703125 -34.734375 C -3.773438 -34.640625 -3.769531 -34.539062 -3.6875 -34.4375 Z M 1.859375 -22.875 "/></g></g></g><g fill="#00ffff" fill-opacity="1"><g transform="translate(235.377536, 131.18349)"><g><path d="M -10.15625 -51.46875 C -10.332031 -51.738281 -10.398438 -52.003906 -10.359375 -52.265625 C -10.316406 -52.535156 -10.175781 -52.769531 -9.9375 -52.96875 L -2.09375 -59.453125 C -1.851562 -59.648438 -1.613281 -59.726562 -1.375 -59.6875 C -1.144531 -59.65625 -0.941406 -59.503906 -0.765625 -59.234375 L 23.6875 -20.921875 C 23.851562 -20.640625 23.925781 -20.375 23.90625 -20.125 C 23.882812 -19.875 23.75 -19.648438 23.5 -19.453125 L 14.53125 -12.03125 C 14.113281 -11.675781 13.679688 -11.695312 13.234375 -12.09375 L -1.90625 -26.390625 C -2 -26.492188 -2.082031 -26.515625 -2.15625 -26.453125 C -2.226562 -26.390625 -2.21875 -26.304688 -2.125 -26.203125 L 9.109375 -8.84375 C 9.273438 -8.570312 9.335938 -8.300781 9.296875 -8.03125 C 9.253906 -7.769531 9.128906 -7.550781 8.921875 -7.375 L 1.03125 -0.859375 C 0.820312 -0.679688 0.597656 -0.609375 0.359375 -0.640625 C 0.128906 -0.679688 -0.0664062 -0.84375 -0.234375 -1.125 L -24.734375 -39.390625 C -24.910156 -39.671875 -24.976562 -39.941406 -24.9375 -40.203125 C -24.894531 -40.472656 -24.769531 -40.691406 -24.5625 -40.859375 L -15.6875 -48.203125 C -15.269531 -48.546875 -14.84375 -48.523438 -14.40625 -48.140625 L 0.875 -33.78125 C 0.96875 -33.675781 1.035156 -33.671875 1.078125 -33.765625 C 1.117188 -33.859375 1.128906 -33.953125 1.109375 -34.046875 Z M -10.15625 -51.46875 "/></g></g></g><g fill="#00ffff" fill-opacity="1"><g transform="translate(265.622325, 106.151433)"><g><path d="M -3.140625 -58.59375 C -2.929688 -58.769531 -2.707031 -58.835938 -2.46875 -58.796875 C -2.238281 -58.765625 -2.035156 -58.609375 -1.859375 -58.328125 L 2.921875 -50.859375 C 3.085938 -50.585938 3.160156 -50.328125 3.140625 -50.078125 C 3.117188 -49.828125 2.988281 -49.597656 2.75 -49.390625 L -3.265625 -44.421875 C -3.441406 -44.273438 -3.460938 -44.113281 -3.328125 -43.9375 L 15.640625 -14.265625 C 15.804688 -13.984375 15.878906 -13.71875 15.859375 -13.46875 C 15.835938 -13.21875 15.703125 -12.992188 15.453125 -12.796875 L 7.515625 -6.21875 C 7.273438 -6.019531 7.035156 -5.9375 6.796875 -5.96875 C 6.566406 -6.007812 6.367188 -6.171875 6.203125 -6.453125 L -12.765625 -36.125 C -12.898438 -36.300781 -13.054688 -36.316406 -13.234375 -36.171875 L -19.046875 -31.359375 C -19.285156 -31.160156 -19.519531 -31.082031 -19.75 -31.125 C -19.988281 -31.164062 -20.195312 -31.316406 -20.375 -31.578125 L -25.15625 -39.046875 C -25.320312 -39.328125 -25.382812 -39.597656 -25.34375 -39.859375 C -25.300781 -40.128906 -25.160156 -40.363281 -24.921875 -40.5625 Z M -3.140625 -58.59375 "/></g></g></g><g fill="#00ffff" fill-opacity="1"><g transform="translate(294.41454, 82.321596)"><g><path d="M -12.34375 -49.65625 C -12.519531 -49.9375 -12.59375 -50.203125 -12.5625 -50.453125 C -12.539062 -50.703125 -12.40625 -50.925781 -12.15625 -51.125 L -4.234375 -57.6875 C -3.984375 -57.894531 -3.738281 -57.976562 -3.5 -57.9375 C -3.269531 -57.90625 -3.070312 -57.75 -2.90625 -57.46875 L 21.609375 -19.203125 C 21.773438 -18.921875 21.835938 -18.644531 21.796875 -18.375 C 21.753906 -18.113281 21.613281 -17.882812 21.375 -17.6875 L 13.4375 -11.125 C 13.195312 -10.914062 12.957031 -10.828125 12.71875 -10.859375 C 12.488281 -10.898438 12.289062 -11.0625 12.125 -11.34375 L 3 -25.640625 C 2.851562 -25.816406 2.710938 -25.847656 2.578125 -25.734375 L 0.125 -23.71875 C -0.0390625 -23.582031 -0.0507812 -23.425781 0.09375 -23.25 L 9.21875 -8.9375 C 9.382812 -8.664062 9.445312 -8.394531 9.40625 -8.125 C 9.363281 -7.863281 9.238281 -7.644531 9.03125 -7.46875 L 1.03125 -0.859375 C 0.820312 -0.679688 0.597656 -0.609375 0.359375 -0.640625 C 0.128906 -0.679688 -0.0664062 -0.84375 -0.234375 -1.125 L -24.734375 -39.390625 C -24.910156 -39.671875 -24.976562 -39.941406 -24.9375 -40.203125 C -24.894531 -40.472656 -24.769531 -40.691406 -24.5625 -40.859375 L -16.5625 -47.484375 C -16.363281 -47.648438 -16.144531 -47.710938 -15.90625 -47.671875 C -15.664062 -47.640625 -15.460938 -47.484375 -15.296875 -47.203125 L -6.171875 -33.015625 C -6.097656 -32.773438 -5.957031 -32.742188 -5.75 -32.921875 L -3.3125 -34.9375 C -3.25 -34.988281 -3.210938 -35.0625 -3.203125 -35.15625 C -3.191406 -35.257812 -3.210938 -35.347656 -3.265625 -35.421875 Z M -12.34375 -49.65625 "/></g></g></g><g fill="#191919" fill-opacity="1"><g transform="translate(61.560002, 275.854502)"><g><path d="M -13.3125 -50.1875 C -10.539062 -52.46875 -7.613281 -53.382812 -4.53125 -52.9375 C -1.445312 -52.488281 1.3125 -50.796875 3.75 -47.859375 C 4.4375 -47.023438 4.929688 -46.351562 5.234375 -45.84375 C 6.796875 -43.40625 7.765625 -40.914062 8.140625 -38.375 C 8.515625 -35.832031 8.273438 -33.441406 7.421875 -31.203125 C 6.578125 -28.960938 5.1875 -27.039062 3.25 -25.4375 L 0.390625 -23.078125 C 0.222656 -22.929688 0.210938 -22.769531 0.359375 -22.59375 L 9.109375 -8.84375 C 9.273438 -8.570312 9.335938 -8.300781 9.296875 -8.03125 C 9.253906 -7.769531 9.128906 -7.550781 8.921875 -7.375 L 0.9375 -0.78125 C 0.726562 -0.601562 0.503906 -0.53125 0.265625 -0.5625 C 0.0351562 -0.601562 -0.160156 -0.765625 -0.328125 -1.046875 L -24.84375 -39.3125 C -25.007812 -39.59375 -25.070312 -39.863281 -25.03125 -40.125 C -25 -40.382812 -24.878906 -40.601562 -24.671875 -40.78125 Z M -4.203125 -31.921875 C -3.441406 -32.554688 -3.03125 -33.378906 -2.96875 -34.390625 C -2.914062 -35.398438 -3.289062 -36.53125 -4.09375 -37.78125 C -4.226562 -38.03125 -4.453125 -38.34375 -4.765625 -38.71875 C -5.484375 -39.582031 -6.21875 -40.082031 -6.96875 -40.21875 C -7.71875 -40.351562 -8.421875 -40.148438 -9.078125 -39.609375 L -9.796875 -39 C -9.972656 -38.851562 -9.992188 -38.691406 -9.859375 -38.515625 L -5.3125 -31.4375 C -5.238281 -31.21875 -5.097656 -31.191406 -4.890625 -31.359375 Z M -4.203125 -31.921875 "/></g></g></g><g fill="#191919" fill-opacity="1"><g transform="translate(89.470299, 252.754584)"><g><path d="M 14.0625 -11.640625 C 13.644531 -11.296875 13.21875 -11.316406 12.78125 -11.703125 L 0.453125 -23.546875 C 0.335938 -23.679688 0.226562 -23.703125 0.125 -23.609375 C -0.0078125 -23.503906 -0.0078125 -23.367188 0.125 -23.203125 L 9.21875 -8.9375 C 9.382812 -8.664062 9.445312 -8.394531 9.40625 -8.125 C 9.363281 -7.863281 9.238281 -7.644531 9.03125 -7.46875 L 1.03125 -0.859375 C 0.820312 -0.679688 0.597656 -0.609375 0.359375 -0.640625 C 0.128906 -0.679688 -0.0664062 -0.84375 -0.234375 -1.125 L -24.734375 -39.390625 C -24.910156 -39.671875 -24.976562 -39.941406 -24.9375 -40.203125 C -24.894531 -40.472656 -24.769531 -40.691406 -24.5625 -40.859375 L -13.203125 -50.265625 C -10.429688 -52.554688 -7.507812 -53.484375 -4.4375 -53.046875 C -1.375 -52.609375 1.359375 -50.9375 3.765625 -48.03125 C 4.441406 -47.207031 4.9375 -46.546875 5.25 -46.046875 C 6.582031 -43.941406 7.453125 -41.789062 7.859375 -39.59375 C 8.273438 -37.40625 8.21875 -35.296875 7.6875 -33.265625 C 7.59375 -33.023438 7.640625 -32.863281 7.828125 -32.78125 L 22.25 -19.890625 L 22.421875 -19.6875 C 22.597656 -19.476562 22.664062 -19.253906 22.625 -19.015625 C 22.582031 -18.785156 22.457031 -18.585938 22.25 -18.421875 Z M -9.703125 -39.09375 C -9.867188 -38.945312 -9.882812 -38.785156 -9.75 -38.609375 L -5.515625 -31.890625 C -5.367188 -31.722656 -5.207031 -31.710938 -5.03125 -31.859375 L -4.34375 -32.40625 C -3.519531 -33.09375 -3.125 -34.035156 -3.15625 -35.234375 C -3.195312 -36.441406 -3.742188 -37.679688 -4.796875 -38.953125 C -5.453125 -39.742188 -6.144531 -40.203125 -6.875 -40.328125 C -7.613281 -40.453125 -8.3125 -40.238281 -8.96875 -39.6875 Z M -9.703125 -39.09375 "/></g></g></g><g fill="#191919" fill-opacity="1"><g transform="translate(117.795617, 229.311174)"><g><path d="M 16.125 -13.34375 C 15.644531 -12.945312 15.222656 -13.003906 14.859375 -13.515625 L 11.5 -17.390625 C 11.46875 -17.484375 11.394531 -17.523438 11.28125 -17.515625 C 11.175781 -17.503906 11.085938 -17.472656 11.015625 -17.421875 L 6.5 -13.671875 C 6.332031 -13.535156 6.285156 -13.351562 6.359375 -13.125 L 8.640625 -8.359375 C 8.929688 -7.796875 8.835938 -7.3125 8.359375 -6.90625 L 0.46875 -0.390625 C -0.0507812 0.046875 -0.472656 -0.0664062 -0.796875 -0.734375 L -18.1875 -45 C -18.425781 -45.5625 -18.304688 -46.039062 -17.828125 -46.4375 L -8.640625 -54.046875 C -8.160156 -54.441406 -7.710938 -54.429688 -7.296875 -54.015625 L 24.375 -21.5625 L 24.46875 -21.453125 C 24.863281 -20.972656 24.800781 -20.519531 24.28125 -20.09375 Z M 1.859375 -22.875 C 1.929688 -22.632812 2.054688 -22.585938 2.234375 -22.734375 L 4.671875 -24.75 C 4.773438 -24.84375 4.789062 -25.003906 4.71875 -25.234375 L -3.421875 -34.65625 C -3.535156 -34.800781 -3.628906 -34.828125 -3.703125 -34.734375 C -3.773438 -34.640625 -3.769531 -34.539062 -3.6875 -34.4375 Z M 1.859375 -22.875 "/></g></g></g><g fill="#191919" fill-opacity="1"><g transform="translate(148.19603, 204.150315)"><g><path d="M 11.125 -8.515625 C 8.15625 -6.054688 5.164062 -4.878906 2.15625 -4.984375 C -0.84375 -5.097656 -3.398438 -6.4375 -5.515625 -9 C -5.710938 -9.238281 -6.039062 -9.695312 -6.5 -10.375 L -7.609375 -12.140625 C -7.773438 -12.421875 -7.835938 -12.691406 -7.796875 -12.953125 C -7.753906 -13.222656 -7.628906 -13.441406 -7.421875 -13.609375 L 0.46875 -20.140625 C 0.675781 -20.304688 0.894531 -20.367188 1.125 -20.328125 C 1.363281 -20.296875 1.5625 -20.140625 1.71875 -19.859375 L 2.5625 -18.65625 C 2.945312 -18.039062 3.390625 -17.644531 3.890625 -17.46875 C 4.390625 -17.300781 4.847656 -17.390625 5.265625 -17.734375 C 5.710938 -18.097656 5.929688 -18.597656 5.921875 -19.234375 C 5.921875 -19.878906 5.691406 -20.476562 5.234375 -21.03125 C 4.804688 -21.550781 4.109375 -21.878906 3.140625 -22.015625 C 2.179688 -22.148438 0.523438 -22.207031 -1.828125 -22.1875 C -4.148438 -22.164062 -6.128906 -22.226562 -7.765625 -22.375 C -9.398438 -22.519531 -11.078125 -22.960938 -12.796875 -23.703125 C -14.523438 -24.453125 -16.078125 -25.660156 -17.453125 -27.328125 C -17.710938 -27.640625 -18.125 -28.207031 -18.6875 -29.03125 C -20.851562 -32.414062 -21.632812 -35.957031 -21.03125 -39.65625 C -20.425781 -43.363281 -18.492188 -46.566406 -15.234375 -49.265625 C -12.265625 -51.722656 -9.265625 -52.863281 -6.234375 -52.6875 C -3.210938 -52.519531 -0.585938 -51.085938 1.640625 -48.390625 C 1.898438 -48.078125 2.28125 -47.546875 2.78125 -46.796875 L 3.578125 -45.53125 C 3.742188 -45.257812 3.804688 -44.988281 3.765625 -44.71875 C 3.722656 -44.445312 3.597656 -44.226562 3.390625 -44.0625 L -4.4375 -37.578125 C -4.644531 -37.410156 -4.863281 -37.347656 -5.09375 -37.390625 C -5.332031 -37.429688 -5.535156 -37.582031 -5.703125 -37.84375 L -6.671875 -39.328125 C -7.066406 -39.867188 -7.507812 -40.210938 -8 -40.359375 C -8.5 -40.503906 -8.957031 -40.40625 -9.375 -40.0625 C -9.851562 -39.664062 -10.078125 -39.125 -10.046875 -38.4375 C -10.015625 -37.757812 -9.710938 -37.078125 -9.140625 -36.390625 C -8.660156 -35.804688 -7.914062 -35.398438 -6.90625 -35.171875 C -5.90625 -34.953125 -4.296875 -34.835938 -2.078125 -34.828125 C 0.929688 -34.796875 3.273438 -34.707031 4.953125 -34.5625 C 6.640625 -34.414062 8.203125 -34.019531 9.640625 -33.375 C 11.085938 -32.738281 12.382812 -31.726562 13.53125 -30.34375 C 13.757812 -30.0625 14.125 -29.546875 14.625 -28.796875 C 16.8125 -25.304688 17.578125 -21.71875 16.921875 -18.03125 C 16.273438 -14.351562 14.34375 -11.179688 11.125 -8.515625 Z M 11.125 -8.515625 "/></g></g></g><g fill="#191919" fill-opacity="1"><g transform="translate(175.172532, 181.82325)"><g><path d="M -12.34375 -49.65625 C -12.519531 -49.9375 -12.59375 -50.203125 -12.5625 -50.453125 C -12.539062 -50.703125 -12.40625 -50.925781 -12.15625 -51.125 L -4.234375 -57.6875 C -3.984375 -57.894531 -3.738281 -57.976562 -3.5 -57.9375 C -3.269531 -57.90625 -3.070312 -57.75 -2.90625 -57.46875 L 21.609375 -19.203125 C 21.773438 -18.921875 21.835938 -18.644531 21.796875 -18.375 C 21.753906 -18.113281 21.613281 -17.882812 21.375 -17.6875 L 13.4375 -11.125 C 13.195312 -10.914062 12.957031 -10.828125 12.71875 -10.859375 C 12.488281 -10.898438 12.289062 -11.0625 12.125 -11.34375 L 3 -25.640625 C 2.851562 -25.816406 2.710938 -25.847656 2.578125 -25.734375 L 0.125 -23.71875 C -0.0390625 -23.582031 -0.0507812 -23.425781 0.09375 -23.25 L 9.21875 -8.9375 C 9.382812 -8.664062 9.445312 -8.394531 9.40625 -8.125 C 9.363281 -7.863281 9.238281 -7.644531 9.03125 -7.46875 L 1.03125 -0.859375 C 0.820312 -0.679688 0.597656 -0.609375 0.359375 -0.640625 C 0.128906 -0.679688 -0.0664062 -0.84375 -0.234375 -1.125 L -24.734375 -39.390625 C -24.910156 -39.671875 -24.976562 -39.941406 -24.9375 -40.203125 C -24.894531 -40.472656 -24.769531 -40.691406 -24.5625 -40.859375 L -16.5625 -47.484375 C -16.363281 -47.648438 -16.144531 -47.710938 -15.90625 -47.671875 C -15.664062 -47.640625 -15.460938 -47.484375 -15.296875 -47.203125 L -6.171875 -33.015625 C -6.097656 -32.773438 -5.957031 -32.742188 -5.75 -32.921875 L -3.3125 -34.9375 C -3.25 -34.988281 -3.210938 -35.0625 -3.203125 -35.15625 C -3.191406 -35.257812 -3.210938 -35.347656 -3.265625 -35.421875 Z M -12.34375 -49.65625 "/></g></g></g><g fill="#191919" fill-opacity="1"><g transform="translate(203.290344, 158.551583)"><g><path d="M 16.125 -13.34375 C 15.644531 -12.945312 15.222656 -13.003906 14.859375 -13.515625 L 11.5 -17.390625 C 11.46875 -17.484375 11.394531 -17.523438 11.28125 -17.515625 C 11.175781 -17.503906 11.085938 -17.472656 11.015625 -17.421875 L 6.5 -13.671875 C 6.332031 -13.535156 6.285156 -13.351562 6.359375 -13.125 L 8.640625 -8.359375 C 8.929688 -7.796875 8.835938 -7.3125 8.359375 -6.90625 L 0.46875 -0.390625 C -0.0507812 0.046875 -0.472656 -0.0664062 -0.796875 -0.734375 L -18.1875 -45 C -18.425781 -45.5625 -18.304688 -46.039062 -17.828125 -46.4375 L -8.640625 -54.046875 C -8.160156 -54.441406 -7.710938 -54.429688 -7.296875 -54.015625 L 24.375 -21.5625 L 24.46875 -21.453125 C 24.863281 -20.972656 24.800781 -20.519531 24.28125 -20.09375 Z M 1.859375 -22.875 C 1.929688 -22.632812 2.054688 -22.585938 2.234375 -22.734375 L 4.671875 -24.75 C 4.773438 -24.84375 4.789062 -25.003906 4.71875 -25.234375 L -3.421875 -34.65625 C -3.535156 -34.800781 -3.628906 -34.828125 -3.703125 -34.734375 C -3.773438 -34.640625 -3.769531 -34.539062 -3.6875 -34.4375 Z M 1.859375 -22.875 "/></g></g></g><g fill="#191919" fill-opacity="1"><g transform="translate(233.690765, 133.390717)"><g><path d="M -10.15625 -51.46875 C -10.332031 -51.738281 -10.398438 -52.003906 -10.359375 -52.265625 C -10.316406 -52.535156 -10.175781 -52.769531 -9.9375 -52.96875 L -2.09375 -59.453125 C -1.851562 -59.648438 -1.613281 -59.726562 -1.375 -59.6875 C -1.144531 -59.65625 -0.941406 -59.503906 -0.765625 -59.234375 L 23.6875 -20.921875 C 23.851562 -20.640625 23.925781 -20.375 23.90625 -20.125 C 23.882812 -19.875 23.75 -19.648438 23.5 -19.453125 L 14.53125 -12.03125 C 14.113281 -11.675781 13.679688 -11.695312 13.234375 -12.09375 L -1.90625 -26.390625 C -2 -26.492188 -2.082031 -26.515625 -2.15625 -26.453125 C -2.226562 -26.390625 -2.21875 -26.304688 -2.125 -26.203125 L 9.109375 -8.84375 C 9.273438 -8.570312 9.335938 -8.300781 9.296875 -8.03125 C 9.253906 -7.769531 9.128906 -7.550781 8.921875 -7.375 L 1.03125 -0.859375 C 0.820312 -0.679688 0.597656 -0.609375 0.359375 -0.640625 C 0.128906 -0.679688 -0.0664062 -0.84375 -0.234375 -1.125 L -24.734375 -39.390625 C -24.910156 -39.671875 -24.976562 -39.941406 -24.9375 -40.203125 C -24.894531 -40.472656 -24.769531 -40.691406 -24.5625 -40.859375 L -15.6875 -48.203125 C -15.269531 -48.546875 -14.84375 -48.523438 -14.40625 -48.140625 L 0.875 -33.78125 C 0.96875 -33.675781 1.035156 -33.671875 1.078125 -33.765625 C 1.117188 -33.859375 1.128906 -33.953125 1.109375 -34.046875 Z M -10.15625 -51.46875 "/></g></g></g><g fill="#191919" fill-opacity="1"><g transform="translate(263.935554, 108.35866)"><g><path d="M -3.140625 -58.59375 C -2.929688 -58.769531 -2.707031 -58.835938 -2.46875 -58.796875 C -2.238281 -58.765625 -2.035156 -58.609375 -1.859375 -58.328125 L 2.921875 -50.859375 C 3.085938 -50.585938 3.160156 -50.328125 3.140625 -50.078125 C 3.117188 -49.828125 2.988281 -49.597656 2.75 -49.390625 L -3.265625 -44.421875 C -3.441406 -44.273438 -3.460938 -44.113281 -3.328125 -43.9375 L 15.640625 -14.265625 C 15.804688 -13.984375 15.878906 -13.71875 15.859375 -13.46875 C 15.835938 -13.21875 15.703125 -12.992188 15.453125 -12.796875 L 7.515625 -6.21875 C 7.273438 -6.019531 7.035156 -5.9375 6.796875 -5.96875 C 6.566406 -6.007812 6.367188 -6.171875 6.203125 -6.453125 L -12.765625 -36.125 C -12.898438 -36.300781 -13.054688 -36.316406 -13.234375 -36.171875 L -19.046875 -31.359375 C -19.285156 -31.160156 -19.519531 -31.082031 -19.75 -31.125 C -19.988281 -31.164062 -20.195312 -31.316406 -20.375 -31.578125 L -25.15625 -39.046875 C -25.320312 -39.328125 -25.382812 -39.597656 -25.34375 -39.859375 C -25.300781 -40.128906 -25.160156 -40.363281 -24.921875 -40.5625 Z M -3.140625 -58.59375 "/></g></g></g><g fill="#191919" fill-opacity="1"><g transform="translate(292.727769, 84.528823)"><g><path d="M -12.34375 -49.65625 C -12.519531 -49.9375 -12.59375 -50.203125 -12.5625 -50.453125 C -12.539062 -50.703125 -12.40625 -50.925781 -12.15625 -51.125 L -4.234375 -57.6875 C -3.984375 -57.894531 -3.738281 -57.976562 -3.5 -57.9375 C -3.269531 -57.90625 -3.070312 -57.75 -2.90625 -57.46875 L 21.609375 -19.203125 C 21.773438 -18.921875 21.835938 -18.644531 21.796875 -18.375 C 21.753906 -18.113281 21.613281 -17.882812 21.375 -17.6875 L 13.4375 -11.125 C 13.195312 -10.914062 12.957031 -10.828125 12.71875 -10.859375 C 12.488281 -10.898438 12.289062 -11.0625 12.125 -11.34375 L 3 -25.640625 C 2.851562 -25.816406 2.710938 -25.847656 2.578125 -25.734375 L 0.125 -23.71875 C -0.0390625 -23.582031 -0.0507812 -23.425781 0.09375 -23.25 L 9.21875 -8.9375 C 9.382812 -8.664062 9.445312 -8.394531 9.40625 -8.125 C 9.363281 -7.863281 9.238281 -7.644531 9.03125 -7.46875 L 1.03125 -0.859375 C 0.820312 -0.679688 0.597656 -0.609375 0.359375 -0.640625 C 0.128906 -0.679688 -0.0664062 -0.84375 -0.234375 -1.125 L -24.734375 -39.390625 C -24.910156 -39.671875 -24.976562 -39.941406 -24.9375 -40.203125 C -24.894531 -40.472656 -24.769531 -40.691406 -24.5625 -40.859375 L -16.5625 -47.484375 C -16.363281 -47.648438 -16.144531 -47.710938 -15.90625 -47.671875 C -15.664062 -47.640625 -15.460938 -47.484375 -15.296875 -47.203125 L -6.171875 -33.015625 C -6.097656 -32.773438 -5.957031 -32.742188 -5.75 -32.921875 L -3.3125 -34.9375 C -3.25 -34.988281 -3.210938 -35.0625 -3.203125 -35.15625 C -3.191406 -35.257812 -3.210938 -35.347656 -3.265625 -35.421875 Z M -12.34375 -49.65625 "/></g></g></g><g fill="#ff0000" fill-opacity="1"><g transform="translate(160.734386, 291.627926)"><g><path d="M 1 -0.84375 C 0.800781 -0.675781 0.582031 -0.609375 0.34375 -0.640625 C 0.113281 -0.679688 -0.078125 -0.832031 -0.234375 -1.09375 L -24.59375 -38.125 C -24.757812 -38.382812 -24.820312 -38.644531 -24.78125 -38.90625 C -24.75 -39.175781 -24.628906 -39.394531 -24.421875 -39.5625 L -14.859375 -47.671875 C -11.890625 -50.191406 -8.867188 -51.421875 -5.796875 -51.359375 C -2.722656 -51.296875 -0.0820312 -49.960938 2.125 -47.359375 C 2.375 -47.054688 2.75 -46.539062 3.25 -45.8125 L 14.140625 -29.21875 C 15.566406 -27.039062 16.382812 -24.734375 16.59375 -22.296875 C 16.800781 -19.859375 16.382812 -17.476562 15.34375 -15.15625 C 14.300781 -12.84375 12.710938 -10.78125 10.578125 -8.96875 Z M 3.421875 -17.1875 C 3.492188 -16.96875 3.628906 -16.941406 3.828125 -17.109375 L 4.5 -17.75 C 5 -18.226562 5.257812 -18.878906 5.28125 -19.703125 C 5.300781 -20.523438 5.066406 -21.363281 4.578125 -22.21875 L -5.4375 -37.390625 L -5.859375 -37.984375 C -6.398438 -38.617188 -6.96875 -38.984375 -7.5625 -39.078125 C -8.164062 -39.179688 -8.71875 -39.019531 -9.21875 -38.59375 L -9.90625 -38 C -10.070312 -37.863281 -10.082031 -37.710938 -9.9375 -37.546875 Z M 3.421875 -17.1875 "/></g></g></g><g fill="#ff0000" fill-opacity="1"><g transform="translate(187.783112, 268.692657)"><g><path d="M 11.015625 -8.640625 C 8.140625 -6.203125 5.171875 -5.09375 2.109375 -5.3125 C -0.941406 -5.53125 -3.644531 -7.023438 -6 -9.796875 C -6.3125 -10.171875 -6.769531 -10.789062 -7.375 -11.65625 L -24.6875 -38.046875 C -24.851562 -38.304688 -24.914062 -38.566406 -24.875 -38.828125 C -24.84375 -39.085938 -24.726562 -39.304688 -24.53125 -39.484375 L -16.8125 -46.015625 C -16.601562 -46.191406 -16.382812 -46.257812 -16.15625 -46.21875 C -15.925781 -46.1875 -15.726562 -46.039062 -15.5625 -45.78125 L 2.4375 -18.4375 C 2.863281 -17.800781 3.316406 -17.398438 3.796875 -17.234375 C 4.285156 -17.078125 4.742188 -17.179688 5.171875 -17.546875 C 5.609375 -17.921875 5.828125 -18.394531 5.828125 -18.96875 C 5.828125 -19.539062 5.617188 -20.140625 5.203125 -20.765625 L -12.765625 -48.15625 C -12.929688 -48.414062 -13.003906 -48.671875 -12.984375 -48.921875 C -12.960938 -49.171875 -12.835938 -49.390625 -12.609375 -49.578125 L -4.953125 -56.078125 C -4.710938 -56.285156 -4.476562 -56.367188 -4.25 -56.328125 C -4.019531 -56.285156 -3.820312 -56.140625 -3.65625 -55.890625 L 13.65625 -29.484375 C 15.207031 -27.117188 16.140625 -24.664062 16.453125 -22.125 C 16.773438 -19.582031 16.46875 -17.140625 15.53125 -14.796875 C 14.59375 -12.453125 13.085938 -10.398438 11.015625 -8.640625 Z M 11.015625 -8.640625 "/></g></g></g><g fill="#ff0000" fill-opacity="1"><g transform="translate(214.73166, 245.842331)"><g><path d="M 10.765625 -8.421875 C 7.890625 -5.992188 4.984375 -4.8125 2.046875 -4.875 C -0.878906 -4.9375 -3.390625 -6.207031 -5.484375 -8.6875 C -5.679688 -8.914062 -6.003906 -9.363281 -6.453125 -10.03125 L -7.5625 -11.765625 C -7.71875 -12.023438 -7.773438 -12.285156 -7.734375 -12.546875 C -7.703125 -12.804688 -7.585938 -13.023438 -7.390625 -13.203125 L 0.21875 -19.65625 C 0.425781 -19.820312 0.644531 -19.882812 0.875 -19.84375 C 1.101562 -19.8125 1.296875 -19.664062 1.453125 -19.40625 L 2.296875 -18.21875 C 2.679688 -17.613281 3.113281 -17.226562 3.59375 -17.0625 C 4.082031 -16.90625 4.523438 -17 4.921875 -17.34375 C 5.359375 -17.707031 5.570312 -18.203125 5.5625 -18.828125 C 5.550781 -19.453125 5.320312 -20.03125 4.875 -20.5625 C 4.445312 -21.070312 3.765625 -21.382812 2.828125 -21.5 C 1.890625 -21.625 0.265625 -21.660156 -2.046875 -21.609375 C -4.328125 -21.578125 -6.257812 -21.617188 -7.84375 -21.734375 C -9.425781 -21.847656 -11.066406 -22.257812 -12.765625 -22.96875 C -14.460938 -23.675781 -15.988281 -24.832031 -17.34375 -26.4375 C -17.601562 -26.738281 -18.007812 -27.285156 -18.5625 -28.078125 C -20.707031 -31.367188 -21.507812 -34.820312 -20.96875 -38.4375 C -20.425781 -42.0625 -18.585938 -45.207031 -15.453125 -47.875 C -12.578125 -50.3125 -9.660156 -51.460938 -6.703125 -51.328125 C -3.742188 -51.191406 -1.160156 -49.816406 1.046875 -47.203125 C 1.296875 -46.910156 1.671875 -46.394531 2.171875 -45.65625 L 2.953125 -44.4375 C 3.128906 -44.175781 3.195312 -43.914062 3.15625 -43.65625 C 3.113281 -43.394531 2.992188 -43.179688 2.796875 -43.015625 L -4.765625 -36.59375 C -4.960938 -36.425781 -5.175781 -36.359375 -5.40625 -36.390625 C -5.632812 -36.421875 -5.835938 -36.566406 -6.015625 -36.828125 L -6.953125 -38.265625 C -7.347656 -38.785156 -7.785156 -39.113281 -8.265625 -39.25 C -8.753906 -39.382812 -9.203125 -39.28125 -9.609375 -38.9375 C -10.078125 -38.539062 -10.289062 -38.015625 -10.25 -37.359375 C -10.207031 -36.710938 -9.898438 -36.054688 -9.328125 -35.390625 C -8.847656 -34.828125 -8.117188 -34.4375 -7.140625 -34.21875 C -6.171875 -34.007812 -4.597656 -33.914062 -2.421875 -33.9375 C 0.492188 -33.9375 2.773438 -33.875 4.421875 -33.75 C 6.078125 -33.632812 7.609375 -33.273438 9.015625 -32.671875 C 10.429688 -32.066406 11.707031 -31.09375 12.84375 -29.75 C 13.0625 -29.488281 13.421875 -28.988281 13.921875 -28.25 C 16.097656 -24.863281 16.890625 -21.367188 16.296875 -17.765625 C 15.710938 -14.171875 13.867188 -11.054688 10.765625 -8.421875 Z M 10.765625 -8.421875 "/></g></g></g><g fill="#ff0000" fill-opacity="1"><g transform="translate(240.778596, 223.756505)"><g><path d="M 10.765625 -8.421875 C 7.890625 -5.992188 4.984375 -4.8125 2.046875 -4.875 C -0.878906 -4.9375 -3.390625 -6.207031 -5.484375 -8.6875 C -5.679688 -8.914062 -6.003906 -9.363281 -6.453125 -10.03125 L -7.5625 -11.765625 C -7.71875 -12.023438 -7.773438 -12.285156 -7.734375 -12.546875 C -7.703125 -12.804688 -7.585938 -13.023438 -7.390625 -13.203125 L 0.21875 -19.65625 C 0.425781 -19.820312 0.644531 -19.882812 0.875 -19.84375 C 1.101562 -19.8125 1.296875 -19.664062 1.453125 -19.40625 L 2.296875 -18.21875 C 2.679688 -17.613281 3.113281 -17.226562 3.59375 -17.0625 C 4.082031 -16.90625 4.523438 -17 4.921875 -17.34375 C 5.359375 -17.707031 5.570312 -18.203125 5.5625 -18.828125 C 5.550781 -19.453125 5.320312 -20.03125 4.875 -20.5625 C 4.445312 -21.070312 3.765625 -21.382812 2.828125 -21.5 C 1.890625 -21.625 0.265625 -21.660156 -2.046875 -21.609375 C -4.328125 -21.578125 -6.257812 -21.617188 -7.84375 -21.734375 C -9.425781 -21.847656 -11.066406 -22.257812 -12.765625 -22.96875 C -14.460938 -23.675781 -15.988281 -24.832031 -17.34375 -26.4375 C -17.601562 -26.738281 -18.007812 -27.285156 -18.5625 -28.078125 C -20.707031 -31.367188 -21.507812 -34.820312 -20.96875 -38.4375 C -20.425781 -42.0625 -18.585938 -45.207031 -15.453125 -47.875 C -12.578125 -50.3125 -9.660156 -51.460938 -6.703125 -51.328125 C -3.742188 -51.191406 -1.160156 -49.816406 1.046875 -47.203125 C 1.296875 -46.910156 1.671875 -46.394531 2.171875 -45.65625 L 2.953125 -44.4375 C 3.128906 -44.175781 3.195312 -43.914062 3.15625 -43.65625 C 3.113281 -43.394531 2.992188 -43.179688 2.796875 -43.015625 L -4.765625 -36.59375 C -4.960938 -36.425781 -5.175781 -36.359375 -5.40625 -36.390625 C -5.632812 -36.421875 -5.835938 -36.566406 -6.015625 -36.828125 L -6.953125 -38.265625 C -7.347656 -38.785156 -7.785156 -39.113281 -8.265625 -39.25 C -8.753906 -39.382812 -9.203125 -39.28125 -9.609375 -38.9375 C -10.078125 -38.539062 -10.289062 -38.015625 -10.25 -37.359375 C -10.207031 -36.710938 -9.898438 -36.054688 -9.328125 -35.390625 C -8.847656 -34.828125 -8.117188 -34.4375 -7.140625 -34.21875 C -6.171875 -34.007812 -4.597656 -33.914062 -2.421875 -33.9375 C 0.492188 -33.9375 2.773438 -33.875 4.421875 -33.75 C 6.078125 -33.632812 7.609375 -33.273438 9.015625 -32.671875 C 10.429688 -32.066406 11.707031 -31.09375 12.84375 -29.75 C 13.0625 -29.488281 13.421875 -28.988281 13.921875 -28.25 C 16.097656 -24.863281 16.890625 -21.367188 16.296875 -17.765625 C 15.710938 -14.171875 13.867188 -11.054688 10.765625 -8.421875 Z M 10.765625 -8.421875 "/></g></g></g><g fill="#ff0000" fill-opacity="1"><g transform="translate(266.825527, 201.670682)"><g><path d="M 15.578125 -13.203125 C 15.109375 -12.804688 14.691406 -12.859375 14.328125 -13.359375 L 11.015625 -17.078125 C 10.984375 -17.171875 10.910156 -17.210938 10.796875 -17.203125 C 10.691406 -17.191406 10.609375 -17.160156 10.546875 -17.109375 L 6.1875 -13.40625 C 6.019531 -13.269531 5.976562 -13.085938 6.0625 -12.859375 L 8.328125 -8.265625 C 8.617188 -7.710938 8.53125 -7.238281 8.0625 -6.84375 L 0.453125 -0.390625 C -0.046875 0.0351562 -0.453125 -0.0703125 -0.765625 -0.71875 L -18.25 -43.65625 C -18.488281 -44.207031 -18.375 -44.6875 -17.90625 -45.09375 L -9.046875 -52.609375 C -8.578125 -53.003906 -8.140625 -52.992188 -7.734375 -52.578125 L 23.515625 -21.3125 L 23.59375 -21.21875 C 23.988281 -20.75 23.9375 -20.300781 23.4375 -19.875 Z M 1.546875 -22.34375 C 1.628906 -22.125 1.753906 -22.082031 1.921875 -22.21875 L 4.265625 -24.21875 C 4.367188 -24.300781 4.378906 -24.453125 4.296875 -24.671875 L -3.734375 -33.765625 C -3.847656 -33.898438 -3.9375 -33.921875 -4 -33.828125 C -4.070312 -33.742188 -4.066406 -33.648438 -3.984375 -33.546875 Z M 1.546875 -22.34375 "/></g></g></g><g fill="#00ffff" fill-opacity="1"><g transform="translate(163.972833, 287.283963)"><g><path d="M 1 -0.84375 C 0.800781 -0.675781 0.582031 -0.609375 0.34375 -0.640625 C 0.113281 -0.679688 -0.078125 -0.832031 -0.234375 -1.09375 L -24.59375 -38.125 C -24.757812 -38.382812 -24.820312 -38.644531 -24.78125 -38.90625 C -24.75 -39.175781 -24.628906 -39.394531 -24.421875 -39.5625 L -14.859375 -47.671875 C -11.890625 -50.191406 -8.867188 -51.421875 -5.796875 -51.359375 C -2.722656 -51.296875 -0.0820312 -49.960938 2.125 -47.359375 C 2.375 -47.054688 2.75 -46.539062 3.25 -45.8125 L 14.140625 -29.21875 C 15.566406 -27.039062 16.382812 -24.734375 16.59375 -22.296875 C 16.800781 -19.859375 16.382812 -17.476562 15.34375 -15.15625 C 14.300781 -12.84375 12.710938 -10.78125 10.578125 -8.96875 Z M 3.421875 -17.1875 C 3.492188 -16.96875 3.628906 -16.941406 3.828125 -17.109375 L 4.5 -17.75 C 5 -18.226562 5.257812 -18.878906 5.28125 -19.703125 C 5.300781 -20.523438 5.066406 -21.363281 4.578125 -22.21875 L -5.4375 -37.390625 L -5.859375 -37.984375 C -6.398438 -38.617188 -6.96875 -38.984375 -7.5625 -39.078125 C -8.164062 -39.179688 -8.71875 -39.019531 -9.21875 -38.59375 L -9.90625 -38 C -10.070312 -37.863281 -10.082031 -37.710938 -9.9375 -37.546875 Z M 3.421875 -17.1875 "/></g></g></g><g fill="#00ffff" fill-opacity="1"><g transform="translate(191.021559, 264.348694)"><g><path d="M 11.015625 -8.640625 C 8.140625 -6.203125 5.171875 -5.09375 2.109375 -5.3125 C -0.941406 -5.53125 -3.644531 -7.023438 -6 -9.796875 C -6.3125 -10.171875 -6.769531 -10.789062 -7.375 -11.65625 L -24.6875 -38.046875 C -24.851562 -38.304688 -24.914062 -38.566406 -24.875 -38.828125 C -24.84375 -39.085938 -24.726562 -39.304688 -24.53125 -39.484375 L -16.8125 -46.015625 C -16.601562 -46.191406 -16.382812 -46.257812 -16.15625 -46.21875 C -15.925781 -46.1875 -15.726562 -46.039062 -15.5625 -45.78125 L 2.4375 -18.4375 C 2.863281 -17.800781 3.316406 -17.398438 3.796875 -17.234375 C 4.285156 -17.078125 4.742188 -17.179688 5.171875 -17.546875 C 5.609375 -17.921875 5.828125 -18.394531 5.828125 -18.96875 C 5.828125 -19.539062 5.617188 -20.140625 5.203125 -20.765625 L -12.765625 -48.15625 C -12.929688 -48.414062 -13.003906 -48.671875 -12.984375 -48.921875 C -12.960938 -49.171875 -12.835938 -49.390625 -12.609375 -49.578125 L -4.953125 -56.078125 C -4.710938 -56.285156 -4.476562 -56.367188 -4.25 -56.328125 C -4.019531 -56.285156 -3.820312 -56.140625 -3.65625 -55.890625 L 13.65625 -29.484375 C 15.207031 -27.117188 16.140625 -24.664062 16.453125 -22.125 C 16.773438 -19.582031 16.46875 -17.140625 15.53125 -14.796875 C 14.59375 -12.453125 13.085938 -10.398438 11.015625 -8.640625 Z M 11.015625 -8.640625 "/></g></g></g><g fill="#00ffff" fill-opacity="1"><g transform="translate(217.970107, 241.498368)"><g><path d="M 10.765625 -8.421875 C 7.890625 -5.992188 4.984375 -4.8125 2.046875 -4.875 C -0.878906 -4.9375 -3.390625 -6.207031 -5.484375 -8.6875 C -5.679688 -8.914062 -6.003906 -9.363281 -6.453125 -10.03125 L -7.5625 -11.765625 C -7.71875 -12.023438 -7.773438 -12.285156 -7.734375 -12.546875 C -7.703125 -12.804688 -7.585938 -13.023438 -7.390625 -13.203125 L 0.21875 -19.65625 C 0.425781 -19.820312 0.644531 -19.882812 0.875 -19.84375 C 1.101562 -19.8125 1.296875 -19.664062 1.453125 -19.40625 L 2.296875 -18.21875 C 2.679688 -17.613281 3.113281 -17.226562 3.59375 -17.0625 C 4.082031 -16.90625 4.523438 -17 4.921875 -17.34375 C 5.359375 -17.707031 5.570312 -18.203125 5.5625 -18.828125 C 5.550781 -19.453125 5.320312 -20.03125 4.875 -20.5625 C 4.445312 -21.070312 3.765625 -21.382812 2.828125 -21.5 C 1.890625 -21.625 0.265625 -21.660156 -2.046875 -21.609375 C -4.328125 -21.578125 -6.257812 -21.617188 -7.84375 -21.734375 C -9.425781 -21.847656 -11.066406 -22.257812 -12.765625 -22.96875 C -14.460938 -23.675781 -15.988281 -24.832031 -17.34375 -26.4375 C -17.601562 -26.738281 -18.007812 -27.285156 -18.5625 -28.078125 C -20.707031 -31.367188 -21.507812 -34.820312 -20.96875 -38.4375 C -20.425781 -42.0625 -18.585938 -45.207031 -15.453125 -47.875 C -12.578125 -50.3125 -9.660156 -51.460938 -6.703125 -51.328125 C -3.742188 -51.191406 -1.160156 -49.816406 1.046875 -47.203125 C 1.296875 -46.910156 1.671875 -46.394531 2.171875 -45.65625 L 2.953125 -44.4375 C 3.128906 -44.175781 3.195312 -43.914062 3.15625 -43.65625 C 3.113281 -43.394531 2.992188 -43.179688 2.796875 -43.015625 L -4.765625 -36.59375 C -4.960938 -36.425781 -5.175781 -36.359375 -5.40625 -36.390625 C -5.632812 -36.421875 -5.835938 -36.566406 -6.015625 -36.828125 L -6.953125 -38.265625 C -7.347656 -38.785156 -7.785156 -39.113281 -8.265625 -39.25 C -8.753906 -39.382812 -9.203125 -39.28125 -9.609375 -38.9375 C -10.078125 -38.539062 -10.289062 -38.015625 -10.25 -37.359375 C -10.207031 -36.710938 -9.898438 -36.054688 -9.328125 -35.390625 C -8.847656 -34.828125 -8.117188 -34.4375 -7.140625 -34.21875 C -6.171875 -34.007812 -4.597656 -33.914062 -2.421875 -33.9375 C 0.492188 -33.9375 2.773438 -33.875 4.421875 -33.75 C 6.078125 -33.632812 7.609375 -33.273438 9.015625 -32.671875 C 10.429688 -32.066406 11.707031 -31.09375 12.84375 -29.75 C 13.0625 -29.488281 13.421875 -28.988281 13.921875 -28.25 C 16.097656 -24.863281 16.890625 -21.367188 16.296875 -17.765625 C 15.710938 -14.171875 13.867188 -11.054688 10.765625 -8.421875 Z M 10.765625 -8.421875 "/></g></g></g><g fill="#00ffff" fill-opacity="1"><g transform="translate(244.017043, 219.412542)"><g><path d="M 10.765625 -8.421875 C 7.890625 -5.992188 4.984375 -4.8125 2.046875 -4.875 C -0.878906 -4.9375 -3.390625 -6.207031 -5.484375 -8.6875 C -5.679688 -8.914062 -6.003906 -9.363281 -6.453125 -10.03125 L -7.5625 -11.765625 C -7.71875 -12.023438 -7.773438 -12.285156 -7.734375 -12.546875 C -7.703125 -12.804688 -7.585938 -13.023438 -7.390625 -13.203125 L 0.21875 -19.65625 C 0.425781 -19.820312 0.644531 -19.882812 0.875 -19.84375 C 1.101562 -19.8125 1.296875 -19.664062 1.453125 -19.40625 L 2.296875 -18.21875 C 2.679688 -17.613281 3.113281 -17.226562 3.59375 -17.0625 C 4.082031 -16.90625 4.523438 -17 4.921875 -17.34375 C 5.359375 -17.707031 5.570312 -18.203125 5.5625 -18.828125 C 5.550781 -19.453125 5.320312 -20.03125 4.875 -20.5625 C 4.445312 -21.070312 3.765625 -21.382812 2.828125 -21.5 C 1.890625 -21.625 0.265625 -21.660156 -2.046875 -21.609375 C -4.328125 -21.578125 -6.257812 -21.617188 -7.84375 -21.734375 C -9.425781 -21.847656 -11.066406 -22.257812 -12.765625 -22.96875 C -14.460938 -23.675781 -15.988281 -24.832031 -17.34375 -26.4375 C -17.601562 -26.738281 -18.007812 -27.285156 -18.5625 -28.078125 C -20.707031 -31.367188 -21.507812 -34.820312 -20.96875 -38.4375 C -20.425781 -42.0625 -18.585938 -45.207031 -15.453125 -47.875 C -12.578125 -50.3125 -9.660156 -51.460938 -6.703125 -51.328125 C -3.742188 -51.191406 -1.160156 -49.816406 1.046875 -47.203125 C 1.296875 -46.910156 1.671875 -46.394531 2.171875 -45.65625 L 2.953125 -44.4375 C 3.128906 -44.175781 3.195312 -43.914062 3.15625 -43.65625 C 3.113281 -43.394531 2.992188 -43.179688 2.796875 -43.015625 L -4.765625 -36.59375 C -4.960938 -36.425781 -5.175781 -36.359375 -5.40625 -36.390625 C -5.632812 -36.421875 -5.835938 -36.566406 -6.015625 -36.828125 L -6.953125 -38.265625 C -7.347656 -38.785156 -7.785156 -39.113281 -8.265625 -39.25 C -8.753906 -39.382812 -9.203125 -39.28125 -9.609375 -38.9375 C -10.078125 -38.539062 -10.289062 -38.015625 -10.25 -37.359375 C -10.207031 -36.710938 -9.898438 -36.054688 -9.328125 -35.390625 C -8.847656 -34.828125 -8.117188 -34.4375 -7.140625 -34.21875 C -6.171875 -34.007812 -4.597656 -33.914062 -2.421875 -33.9375 C 0.492188 -33.9375 2.773438 -33.875 4.421875 -33.75 C 6.078125 -33.632812 7.609375 -33.273438 9.015625 -32.671875 C 10.429688 -32.066406 11.707031 -31.09375 12.84375 -29.75 C 13.0625 -29.488281 13.421875 -28.988281 13.921875 -28.25 C 16.097656 -24.863281 16.890625 -21.367188 16.296875 -17.765625 C 15.710938 -14.171875 13.867188 -11.054688 10.765625 -8.421875 Z M 10.765625 -8.421875 "/></g></g></g><g fill="#00ffff" fill-opacity="1"><g transform="translate(270.063974, 197.326718)"><g><path d="M 15.578125 -13.203125 C 15.109375 -12.804688 14.691406 -12.859375 14.328125 -13.359375 L 11.015625 -17.078125 C 10.984375 -17.171875 10.910156 -17.210938 10.796875 -17.203125 C 10.691406 -17.191406 10.609375 -17.160156 10.546875 -17.109375 L 6.1875 -13.40625 C 6.019531 -13.269531 5.976562 -13.085938 6.0625 -12.859375 L 8.328125 -8.265625 C 8.617188 -7.710938 8.53125 -7.238281 8.0625 -6.84375 L 0.453125 -0.390625 C -0.046875 0.0351562 -0.453125 -0.0703125 -0.765625 -0.71875 L -18.25 -43.65625 C -18.488281 -44.207031 -18.375 -44.6875 -17.90625 -45.09375 L -9.046875 -52.609375 C -8.578125 -53.003906 -8.140625 -52.992188 -7.734375 -52.578125 L 23.515625 -21.3125 L 23.59375 -21.21875 C 23.988281 -20.75 23.9375 -20.300781 23.4375 -19.875 Z M 1.546875 -22.34375 C 1.628906 -22.125 1.753906 -22.082031 1.921875 -22.21875 L 4.265625 -24.21875 C 4.367188 -24.300781 4.378906 -24.453125 4.296875 -24.671875 L -3.734375 -33.765625 C -3.847656 -33.898438 -3.9375 -33.921875 -4 -33.828125 C -4.070312 -33.742188 -4.066406 -33.648438 -3.984375 -33.546875 Z M 1.546875 -22.34375 "/></g></g></g><g fill="#191919" fill-opacity="1"><g transform="translate(162.353608, 289.455943)"><g><path d="M 1 -0.84375 C 0.800781 -0.675781 0.582031 -0.609375 0.34375 -0.640625 C 0.113281 -0.679688 -0.078125 -0.832031 -0.234375 -1.09375 L -24.59375 -38.125 C -24.757812 -38.382812 -24.820312 -38.644531 -24.78125 -38.90625 C -24.75 -39.175781 -24.628906 -39.394531 -24.421875 -39.5625 L -14.859375 -47.671875 C -11.890625 -50.191406 -8.867188 -51.421875 -5.796875 -51.359375 C -2.722656 -51.296875 -0.0820312 -49.960938 2.125 -47.359375 C 2.375 -47.054688 2.75 -46.539062 3.25 -45.8125 L 14.140625 -29.21875 C 15.566406 -27.039062 16.382812 -24.734375 16.59375 -22.296875 C 16.800781 -19.859375 16.382812 -17.476562 15.34375 -15.15625 C 14.300781 -12.84375 12.710938 -10.78125 10.578125 -8.96875 Z M 3.421875 -17.1875 C 3.492188 -16.96875 3.628906 -16.941406 3.828125 -17.109375 L 4.5 -17.75 C 5 -18.226562 5.257812 -18.878906 5.28125 -19.703125 C 5.300781 -20.523438 5.066406 -21.363281 4.578125 -22.21875 L -5.4375 -37.390625 L -5.859375 -37.984375 C -6.398438 -38.617188 -6.96875 -38.984375 -7.5625 -39.078125 C -8.164062 -39.179688 -8.71875 -39.019531 -9.21875 -38.59375 L -9.90625 -38 C -10.070312 -37.863281 -10.082031 -37.710938 -9.9375 -37.546875 Z M 3.421875 -17.1875 "/></g></g></g><g fill="#191919" fill-opacity="1"><g transform="translate(189.402334, 266.520674)"><g><path d="M 11.015625 -8.640625 C 8.140625 -6.203125 5.171875 -5.09375 2.109375 -5.3125 C -0.941406 -5.53125 -3.644531 -7.023438 -6 -9.796875 C -6.3125 -10.171875 -6.769531 -10.789062 -7.375 -11.65625 L -24.6875 -38.046875 C -24.851562 -38.304688 -24.914062 -38.566406 -24.875 -38.828125 C -24.84375 -39.085938 -24.726562 -39.304688 -24.53125 -39.484375 L -16.8125 -46.015625 C -16.601562 -46.191406 -16.382812 -46.257812 -16.15625 -46.21875 C -15.925781 -46.1875 -15.726562 -46.039062 -15.5625 -45.78125 L 2.4375 -18.4375 C 2.863281 -17.800781 3.316406 -17.398438 3.796875 -17.234375 C 4.285156 -17.078125 4.742188 -17.179688 5.171875 -17.546875 C 5.609375 -17.921875 5.828125 -18.394531 5.828125 -18.96875 C 5.828125 -19.539062 5.617188 -20.140625 5.203125 -20.765625 L -12.765625 -48.15625 C -12.929688 -48.414062 -13.003906 -48.671875 -12.984375 -48.921875 C -12.960938 -49.171875 -12.835938 -49.390625 -12.609375 -49.578125 L -4.953125 -56.078125 C -4.710938 -56.285156 -4.476562 -56.367188 -4.25 -56.328125 C -4.019531 -56.285156 -3.820312 -56.140625 -3.65625 -55.890625 L 13.65625 -29.484375 C 15.207031 -27.117188 16.140625 -24.664062 16.453125 -22.125 C 16.773438 -19.582031 16.46875 -17.140625 15.53125 -14.796875 C 14.59375 -12.453125 13.085938 -10.398438 11.015625 -8.640625 Z M 11.015625 -8.640625 "/></g></g></g><g fill="#191919" fill-opacity="1"><g transform="translate(216.350883, 243.670348)"><g><path d="M 10.765625 -8.421875 C 7.890625 -5.992188 4.984375 -4.8125 2.046875 -4.875 C -0.878906 -4.9375 -3.390625 -6.207031 -5.484375 -8.6875 C -5.679688 -8.914062 -6.003906 -9.363281 -6.453125 -10.03125 L -7.5625 -11.765625 C -7.71875 -12.023438 -7.773438 -12.285156 -7.734375 -12.546875 C -7.703125 -12.804688 -7.585938 -13.023438 -7.390625 -13.203125 L 0.21875 -19.65625 C 0.425781 -19.820312 0.644531 -19.882812 0.875 -19.84375 C 1.101562 -19.8125 1.296875 -19.664062 1.453125 -19.40625 L 2.296875 -18.21875 C 2.679688 -17.613281 3.113281 -17.226562 3.59375 -17.0625 C 4.082031 -16.90625 4.523438 -17 4.921875 -17.34375 C 5.359375 -17.707031 5.570312 -18.203125 5.5625 -18.828125 C 5.550781 -19.453125 5.320312 -20.03125 4.875 -20.5625 C 4.445312 -21.070312 3.765625 -21.382812 2.828125 -21.5 C 1.890625 -21.625 0.265625 -21.660156 -2.046875 -21.609375 C -4.328125 -21.578125 -6.257812 -21.617188 -7.84375 -21.734375 C -9.425781 -21.847656 -11.066406 -22.257812 -12.765625 -22.96875 C -14.460938 -23.675781 -15.988281 -24.832031 -17.34375 -26.4375 C -17.601562 -26.738281 -18.007812 -27.285156 -18.5625 -28.078125 C -20.707031 -31.367188 -21.507812 -34.820312 -20.96875 -38.4375 C -20.425781 -42.0625 -18.585938 -45.207031 -15.453125 -47.875 C -12.578125 -50.3125 -9.660156 -51.460938 -6.703125 -51.328125 C -3.742188 -51.191406 -1.160156 -49.816406 1.046875 -47.203125 C 1.296875 -46.910156 1.671875 -46.394531 2.171875 -45.65625 L 2.953125 -44.4375 C 3.128906 -44.175781 3.195312 -43.914062 3.15625 -43.65625 C 3.113281 -43.394531 2.992188 -43.179688 2.796875 -43.015625 L -4.765625 -36.59375 C -4.960938 -36.425781 -5.175781 -36.359375 -5.40625 -36.390625 C -5.632812 -36.421875 -5.835938 -36.566406 -6.015625 -36.828125 L -6.953125 -38.265625 C -7.347656 -38.785156 -7.785156 -39.113281 -8.265625 -39.25 C -8.753906 -39.382812 -9.203125 -39.28125 -9.609375 -38.9375 C -10.078125 -38.539062 -10.289062 -38.015625 -10.25 -37.359375 C -10.207031 -36.710938 -9.898438 -36.054688 -9.328125 -35.390625 C -8.847656 -34.828125 -8.117188 -34.4375 -7.140625 -34.21875 C -6.171875 -34.007812 -4.597656 -33.914062 -2.421875 -33.9375 C 0.492188 -33.9375 2.773438 -33.875 4.421875 -33.75 C 6.078125 -33.632812 7.609375 -33.273438 9.015625 -32.671875 C 10.429688 -32.066406 11.707031 -31.09375 12.84375 -29.75 C 13.0625 -29.488281 13.421875 -28.988281 13.921875 -28.25 C 16.097656 -24.863281 16.890625 -21.367188 16.296875 -17.765625 C 15.710938 -14.171875 13.867188 -11.054688 10.765625 -8.421875 Z M 10.765625 -8.421875 "/></g></g></g><g fill="#191919" fill-opacity="1"><g transform="translate(242.397818, 221.584522)"><g><path d="M 10.765625 -8.421875 C 7.890625 -5.992188 4.984375 -4.8125 2.046875 -4.875 C -0.878906 -4.9375 -3.390625 -6.207031 -5.484375 -8.6875 C -5.679688 -8.914062 -6.003906 -9.363281 -6.453125 -10.03125 L -7.5625 -11.765625 C -7.71875 -12.023438 -7.773438 -12.285156 -7.734375 -12.546875 C -7.703125 -12.804688 -7.585938 -13.023438 -7.390625 -13.203125 L 0.21875 -19.65625 C 0.425781 -19.820312 0.644531 -19.882812 0.875 -19.84375 C 1.101562 -19.8125 1.296875 -19.664062 1.453125 -19.40625 L 2.296875 -18.21875 C 2.679688 -17.613281 3.113281 -17.226562 3.59375 -17.0625 C 4.082031 -16.90625 4.523438 -17 4.921875 -17.34375 C 5.359375 -17.707031 5.570312 -18.203125 5.5625 -18.828125 C 5.550781 -19.453125 5.320312 -20.03125 4.875 -20.5625 C 4.445312 -21.070312 3.765625 -21.382812 2.828125 -21.5 C 1.890625 -21.625 0.265625 -21.660156 -2.046875 -21.609375 C -4.328125 -21.578125 -6.257812 -21.617188 -7.84375 -21.734375 C -9.425781 -21.847656 -11.066406 -22.257812 -12.765625 -22.96875 C -14.460938 -23.675781 -15.988281 -24.832031 -17.34375 -26.4375 C -17.601562 -26.738281 -18.007812 -27.285156 -18.5625 -28.078125 C -20.707031 -31.367188 -21.507812 -34.820312 -20.96875 -38.4375 C -20.425781 -42.0625 -18.585938 -45.207031 -15.453125 -47.875 C -12.578125 -50.3125 -9.660156 -51.460938 -6.703125 -51.328125 C -3.742188 -51.191406 -1.160156 -49.816406 1.046875 -47.203125 C 1.296875 -46.910156 1.671875 -46.394531 2.171875 -45.65625 L 2.953125 -44.4375 C 3.128906 -44.175781 3.195312 -43.914062 3.15625 -43.65625 C 3.113281 -43.394531 2.992188 -43.179688 2.796875 -43.015625 L -4.765625 -36.59375 C -4.960938 -36.425781 -5.175781 -36.359375 -5.40625 -36.390625 C -5.632812 -36.421875 -5.835938 -36.566406 -6.015625 -36.828125 L -6.953125 -38.265625 C -7.347656 -38.785156 -7.785156 -39.113281 -8.265625 -39.25 C -8.753906 -39.382812 -9.203125 -39.28125 -9.609375 -38.9375 C -10.078125 -38.539062 -10.289062 -38.015625 -10.25 -37.359375 C -10.207031 -36.710938 -9.898438 -36.054688 -9.328125 -35.390625 C -8.847656 -34.828125 -8.117188 -34.4375 -7.140625 -34.21875 C -6.171875 -34.007812 -4.597656 -33.914062 -2.421875 -33.9375 C 0.492188 -33.9375 2.773438 -33.875 4.421875 -33.75 C 6.078125 -33.632812 7.609375 -33.273438 9.015625 -32.671875 C 10.429688 -32.066406 11.707031 -31.09375 12.84375 -29.75 C 13.0625 -29.488281 13.421875 -28.988281 13.921875 -28.25 C 16.097656 -24.863281 16.890625 -21.367188 16.296875 -17.765625 C 15.710938 -14.171875 13.867188 -11.054688 10.765625 -8.421875 Z M 10.765625 -8.421875 "/></g></g></g><g fill="#191919" fill-opacity="1"><g transform="translate(268.444749, 199.498699)"><g><path d="M 15.578125 -13.203125 C 15.109375 -12.804688 14.691406 -12.859375 14.328125 -13.359375 L 11.015625 -17.078125 C 10.984375 -17.171875 10.910156 -17.210938 10.796875 -17.203125 C 10.691406 -17.191406 10.609375 -17.160156 10.546875 -17.109375 L 6.1875 -13.40625 C 6.019531 -13.269531 5.976562 -13.085938 6.0625 -12.859375 L 8.328125 -8.265625 C 8.617188 -7.710938 8.53125 -7.238281 8.0625 -6.84375 L 0.453125 -0.390625 C -0.046875 0.0351562 -0.453125 -0.0703125 -0.765625 -0.71875 L -18.25 -43.65625 C -18.488281 -44.207031 -18.375 -44.6875 -17.90625 -45.09375 L -9.046875 -52.609375 C -8.578125 -53.003906 -8.140625 -52.992188 -7.734375 -52.578125 L 23.515625 -21.3125 L 23.59375 -21.21875 C 23.988281 -20.75 23.9375 -20.300781 23.4375 -19.875 Z M 1.546875 -22.34375 C 1.628906 -22.125 1.753906 -22.082031 1.921875 -22.21875 L 4.265625 -24.21875 C 4.367188 -24.300781 4.378906 -24.453125 4.296875 -24.671875 L -3.734375 -33.765625 C -3.847656 -33.898438 -3.9375 -33.921875 -4 -33.828125 C -4.070312 -33.742188 -4.066406 -33.648438 -3.984375 -33.546875 Z M 1.546875 -22.34375 "/></g></g></g></svg>