<svg xmlns="http://www.w3.org/2000/svg" xmlns:xlink="http://www.w3.org/1999/xlink" width="500" zoomAndPan="magnify" viewBox="0 0 375 374.999991" height="500" preserveAspectRatio="xMidYMid meet" version="1.0"><defs><g/></defs><g fill="#ff3131" fill-opacity="1"><g transform="translate(1.67022, 211.23247)"><g><path d="M 11.023438 -0.683594 C 11.023438 -0.683594 58.535156 -1.3125 62.933594 -6.394531 C 71.613281 -16.277344 72.871094 -22.898438 72.527344 -35.691406 C 72.125 -48.542969 69.441406 -67.445312 65.332031 -74.925781 C 51.167969 -85.945312 18.960938 -86.117188 10.90625 -85.488281 C 10.28125 -80.808594 11.023438 -0.683594 11.023438 -0.683594 Z M 27.8125 -20.730469 C 26.613281 -25.183594 27.527344 -53.453125 27.527344 -53.453125 C 27.527344 -53.453125 39.460938 -54.253906 41.347656 -54.253906 C 45.402344 -49.910156 44.488281 -25.242188 41.347656 -19.929688 Z M 27.8125 -20.730469 "/></g></g></g><g fill="#ff3131" fill-opacity="1"><g transform="translate(72.947192, 211.23247)"><g><path d="M 11.648438 -3.3125 L 72.871094 -1.085938 C 72.871094 -1.085938 75.722656 -83.605469 74.980469 -83.777344 C 65.84375 -85.890625 59.960938 -85.375 59.960938 -85.375 L 57.109375 -84.519531 C 57.109375 -84.519531 56.363281 -56.078125 56.59375 -30.09375 L 42.03125 -29.125 C 42.03125 -32.496094 43.34375 -71.328125 43.117188 -80.691406 C 40.03125 -81.492188 19.132812 -82.121094 11.535156 -81.605469 C 10.679688 -68.929688 10.964844 -9.707031 10.566406 -5.3125 Z M 11.648438 -3.3125 "/></g></g></g><g fill="#ff3131" fill-opacity="1"><g transform="translate(147.764466, 211.23247)"><g><path d="M 69.269531 -1.425781 C 70.46875 -1.941406 71.726562 -30.382812 71.726562 -30.382812 L 70.8125 -31.351562 L 22.5 -33.921875 L 23.300781 -41.917969 C 23.300781 -41.917969 62.074219 -41.632812 63.390625 -41.917969 C 64.644531 -42.144531 63.160156 -85.148438 62.074219 -85.375 C 59.164062 -85.945312 11.992188 -82.863281 10.964844 -82.0625 C 10.851562 -82.007812 9.367188 -79.949219 9.367188 -79.949219 C 6.679688 -76.410156 5.9375 -28.839844 6.566406 -28.839844 C 6.566406 -28.839844 14.960938 -26.328125 36.835938 -25.242188 C 36.378906 -21.699219 35.578125 -16.847656 35.578125 -16.847656 C 34.265625 -16.847656 10.222656 -20.160156 10.222656 -20.160156 C 10.050781 -20.042969 8.910156 -18.046875 8.910156 -18.046875 C 8.910156 -18.046875 8.964844 -4.339844 9.878906 -2.570312 Z M 69.269531 -1.425781 "/></g></g></g><g fill="#ff3131" fill-opacity="1"><g transform="translate(216.528967, 211.23247)"><g><path d="M 69.269531 -1.425781 C 70.46875 -1.941406 71.726562 -30.382812 71.726562 -30.382812 L 70.8125 -31.351562 L 22.5 -33.921875 L 23.300781 -41.917969 C 23.300781 -41.917969 62.074219 -41.632812 63.390625 -41.917969 C 64.644531 -42.144531 63.160156 -85.148438 62.074219 -85.375 C 59.164062 -85.945312 11.992188 -82.863281 10.964844 -82.0625 C 10.851562 -82.007812 9.367188 -79.949219 9.367188 -79.949219 C 6.679688 -76.410156 5.9375 -28.839844 6.566406 -28.839844 C 6.566406 -28.839844 14.960938 -26.328125 36.835938 -25.242188 C 36.378906 -21.699219 35.578125 -16.847656 35.578125 -16.847656 C 34.265625 -16.847656 10.222656 -20.160156 10.222656 -20.160156 C 10.050781 -20.042969 8.910156 -18.046875 8.910156 -18.046875 C 8.910156 -18.046875 8.964844 -4.339844 9.878906 -2.570312 Z M 69.269531 -1.425781 "/></g></g></g><g fill="#ff3131" fill-opacity="1"><g transform="translate(285.293468, 211.23247)"><g><path d="M 9.652344 -84.40625 C 6.96875 -57.507812 4.511719 -33.292969 3.082031 -4.054688 L 5.027344 -1.882812 L 32.496094 -0.515625 L 33.351562 -18.101562 L 43.6875 -17.417969 C 45.855469 -2.398438 45.402344 -5.027344 46.429688 -1.3125 C 51.167969 -1.140625 58.648438 -1.425781 62.761719 -1.425781 C 60.019531 -30.09375 55.910156 -55.964844 52.597656 -84.519531 C 47.054688 -85.03125 23.871094 -87.886719 9.652344 -84.40625 Z M 30.09375 -32.722656 L 29.808594 -49.457031 C 29.808594 -49.457031 29.410156 -51.226562 43.058594 -50.253906 L 44.203125 -31.921875 Z M 30.09375 -32.722656 "/></g></g></g><g fill="#ff3131" fill-opacity="1"><g transform="translate(344.693314, 211.23247)"><g><path d="M 23.699219 -6.167969 C 23.699219 -6.679688 23.699219 -7.136719 23.414062 -7.59375 C 21.988281 -10.851562 19.417969 -11.480469 15.875 -11.480469 C 11.648438 -11.480469 4.683594 -9.652344 4.683594 -4.796875 C 4.683594 -0.398438 9.59375 2.285156 13.476562 2.285156 C 17.703125 2.285156 23.699219 -1.882812 23.699219 -6.167969 Z M 23.699219 -6.167969 "/></g></g></g></svg>