<svg xmlns="http://www.w3.org/2000/svg" xmlns:xlink="http://www.w3.org/1999/xlink" width="24" height="24" fill-rule="evenodd" stroke-linejoin="round" stroke-miterlimit="2" clip-rule="evenodd" id="up-arrow"><defs><linearGradient id="c"><stop offset="0" stop-color="#e1f5fe"></stop><stop offset="1" stop-color="#fff"></stop></linearGradient><linearGradient id="b"><stop offset="0" stop-color="#0277bd"></stop><stop offset="1" stop-color="#4fc3f7"></stop></linearGradient><linearGradient id="a"><stop offset="0" stop-color="#039be5"></stop><stop offset="1" stop-color="#80deea"></stop></linearGradient><linearGradient id="d" x1="7.91" x2="15.41" y1="20.228" y2=".864" gradientUnits="userSpaceOnUse" xlink:href="#a"></linearGradient><linearGradient id="e" x1="11.91" x2="12.91" y1="18.365" y2="6.591" gradientUnits="userSpaceOnUse" xlink:href="#b"></linearGradient><linearGradient id="f" x1="11.592" x2="13.092" y1="15.637" y2="6.137" gradientUnits="userSpaceOnUse" xlink:href="#c"></linearGradient></defs><circle cx="12" cy="12" r="10" fill="url(#d)"></circle><path fill="url(#e)" d="M 11,10.414 V 18 c 0,0.552 0.448,1 1,1 0.552,0 1,-0.448 1,-1 v -7.618 l 1.3,1.276 c 0.393,0.386 1.027,0.38 1.414,-0.014 0.386,-0.393 0.38,-1.027 -0.014,-1.414 l -3,-2.944 C 12.309,6.902 11.681,6.905 11.293,7.293 l -3,3 c -0.39,0.39 -0.39,1.024 0,1.414 0.39,0.39 1.024,0.39 1.414,0 z"></path><path fill="url(#f)" d="M 11,9.414 V 17 c 0,0.552 0.448,1 1,1 0.552,0 1,-0.448 1,-1 V 9.382 l 1.3,1.276 c 0.393,0.386 1.027,0.38 1.414,-0.014 C 16.1,10.251 16.094,9.617 15.7,9.23 l -3,-2.944 C 12.309,5.902 11.681,5.905 11.293,6.293 l -3,3 c -0.39,0.39 -0.39,1.024 0,1.414 0.39,0.39 1.024,0.39 1.414,0 z"></path></svg>